$MeshFormat
2.2 0 8
$EndMeshFormat
$PhysicalNames
1
3 1 "domain"
$EndPhysicalNames
$Nodes
27
1 0 0 0.5
2 0 0 0
3 0 0.5 0.5
4 0 0.5 0
5 0.5 0 0.5
6 0.5 0 0
7 0.5 0.5 0.5
8 0.5 0.5 0
9 0 0 0.25
10 0 0.25 0.5
11 0 0.5 0.25
12 0 0.25 0
13 0.5 0 0.25
14 0.5 0.25 0.5
15 0.5 0.5 0.25
16 0.5 0.25 0
17 0.25 0 0
18 0.25 0 0.5
19 0.25 0.5 0
20 0.25 0.5 0.5
21 0 0.25 0.25
22 0.5 0.25 0.25
23 0.25 0 0.25
24 0.25 0.5 0.25
25 0.25 0.25 0
26 0.25 0.25 0.5
27 0.25 0.25 0.25
$EndNodes
$Elements
48
1 4 2 1 1 9 2 12 17
2 4 2 1 1 12 9 17 23
3 4 2 1 1 23 17 12 25
4 4 2 1 1 12 9 23 21
5 4 2 1 1 25 12 23 21
6 4 2 1 1 25 23 27 21
7 4 2 1 1 23 17 25 6
8 4 2 1 1 25 23 6 13
9 4 2 1 1 13 6 25 16
10 4 2 1 1 25 23 13 27
11 4 2 1 1 16 25 13 27
12 4 2 1 1 16 13 22 27
13 4 2 1 1 21 12 4 25
14 4 2 1 1 4 21 25 27
15 4 2 1 1 27 25 4 19
16 4 2 1 1 4 21 27 11
17 4 2 1 1 19 4 27 11
18 4 2 1 1 19 27 24 11
19 4 2 1 1 27 25 19 16
20 4 2 1 1 19 27 16 22
21 4 2 1 1 22 16 19 8
22 4 2 1 1 19 27 22 24
23 4 2 1 1 8 19 22 24
24 4 2 1 1 8 22 15 24
25 4 2 1 1 1 9 21 23
26 4 2 1 1 21 1 23 18
27 4 2 1 1 18 23 21 27
28 4 2 1 1 21 1 18 10
29 4 2 1 1 27 21 18 10
30 4 2 1 1 27 18 26 10
31 4 2 1 1 18 23 27 13
32 4 2 1 1 27 18 13 5
33 4 2 1 1 5 13 27 22
34 4 2 1 1 27 18 5 26
35 4 2 1 1 22 27 5 26
36 4 2 1 1 22 5 14 26
37 4 2 1 1 10 21 11 27
38 4 2 1 1 11 10 27 26
39 4 2 1 1 26 27 11 24
40 4 2 1 1 11 10 26 3
41 4 2 1 1 24 11 26 3
42 4 2 1 1 24 26 20 3
43 4 2 1 1 26 27 24 22
44 4 2 1 1 24 26 22 14
45 4 2 1 1 14 22 24 15
46 4 2 1 1 24 26 14 20
47 4 2 1 1 15 24 14 20
48 4 2 1 1 15 14 7 20
$EndElements
