$MeshFormat
2.2 0 8
$EndMeshFormat
$PhysicalNames
1
3 1 "domain"
$EndPhysicalNames
$Nodes
125
1 0 0 0.5
2 0 0 0
3 0 0.5 0.5
4 0 0.5 0
5 0.5 0 0.5
6 0.5 0 0
7 0.5 0.5 0.5
8 0.5 0.5 0
9 0 0 0.125
10 0 0 0.25
11 0 0 0.375
12 0 0.125 0.5
13 0 0.25 0.5
14 0 0.375 0.5
15 0 0.5 0.125
16 0 0.5 0.25
17 0 0.5 0.375
18 0 0.125 0
19 0 0.25 0
20 0 0.375 0
21 0.5 0 0.125
22 0.5 0 0.25
23 0.5 0 0.375
24 0.5 0.125 0.5
25 0.5 0.25 0.5
26 0.5 0.375 0.5
27 0.5 0.5 0.125
28 0.5 0.5 0.25
29 0.5 0.5 0.375
30 0.5 0.125 0
31 0.5 0.25 0
32 0.5 0.375 0
33 0.125 0 0
34 0.25 0 0
35 0.375 0 0
36 0.125 0 0.5
37 0.25 0 0.5
38 0.375 0 0.5
39 0.125 0.5 0
40 0.25 0.5 0
41 0.375 0.5 0
42 0.125 0.5 0.5
43 0.25 0.5 0.5
44 0.375 0.5 0.5
45 0 0.125 0.125
46 0 0.25 0.125
47 0 0.375 0.125
48 0 0.125 0.25
49 0 0.25 0.25
50 0 0.375 0.25
51 0 0.125 0.375
52 0 0.25 0.375
53 0 0.375 0.375
54 0.5 0.125 0.125
55 0.5 0.25 0.125
56 0.5 0.375 0.125
57 0.5 0.125 0.25
58 0.5 0.25 0.25
59 0.5 0.375 0.25
60 0.5 0.125 0.375
61 0.5 0.25 0.375
62 0.5 0.375 0.375
63 0.125 0 0.125
64 0.125 0 0.25
65 0.125 0 0.375
66 0.25 0 0.125
67 0.25 0 0.25
68 0.25 0 0.375
69 0.375 0 0.125
70 0.375 0 0.25
71 0.375 0 0.375
72 0.125 0.5 0.125
73 0.125 0.5 0.25
74 0.125 0.5 0.375
75 0.25 0.5 0.125
76 0.25 0.5 0.25
77 0.25 0.5 0.375
78 0.375 0.5 0.125
79 0.375 0.5 0.25
80 0.375 0.5 0.375
81 0.125 0.125 0
82 0.25 0.125 0
83 0.375 0.125 0
84 0.125 0.25 0
85 0.25 0.25 0
86 0.375 0.25 0
87 0.125 0.375 0
88 0.25 0.375 0
89 0.375 0.375 0
90 0.125 0.125 0.5
91 0.25 0.125 0.5
92 0.375 0.125 0.5
93 0.125 0.25 0.5
94 0.25 0.25 0.5
95 0.375 0.25 0.5
96 0.125 0.375 0.5
97 0.25 0.375 0.5
98 0.375 0.375 0.5
99 0.125 0.125 0.125
100 0.25 0.125 0.125
101 0.375 0.125 0.125
102 0.125 0.25 0.125
103 0.25 0.25 0.125
104 0.375 0.25 0.125
105 0.125 0.375 0.125
106 0.25 0.375 0.125
107 0.375 0.375 0.125
108 0.125 0.125 0.25
109 0.25 0.125 0.25
110 0.375 0.125 0.25
111 0.125 0.25 0.25
112 0.25 0.25 0.25
113 0.375 0.25 0.25
114 0.125 0.375 0.25
115 0.25 0.375 0.25
116 0.375 0.375 0.25
117 0.125 0.125 0.375
118 0.25 0.125 0.375
119 0.375 0.125 0.375
120 0.125 0.25 0.375
121 0.25 0.25 0.375
122 0.375 0.25 0.375
123 0.125 0.375 0.375
124 0.25 0.375 0.375
125 0.375 0.375 0.375
$EndNodes
$Elements
384
1 4 2 1 1 9 2 18 33
2 4 2 1 1 18 9 33 63
3 4 2 1 1 63 33 18 81
4 4 2 1 1 18 9 63 45
5 4 2 1 1 81 18 63 45
6 4 2 1 1 81 63 99 45
7 4 2 1 1 63 33 81 34
8 4 2 1 1 81 63 34 66
9 4 2 1 1 66 34 81 82
10 4 2 1 1 81 63 66 99
11 4 2 1 1 82 81 66 99
12 4 2 1 1 82 66 100 99
13 4 2 1 1 66 34 82 35
14 4 2 1 1 82 66 35 69
15 4 2 1 1 69 35 82 83
16 4 2 1 1 82 66 69 100
17 4 2 1 1 83 82 69 100
18 4 2 1 1 83 69 101 100
19 4 2 1 1 69 35 83 6
20 4 2 1 1 83 69 6 21
21 4 2 1 1 21 6 83 30
22 4 2 1 1 83 69 21 101
23 4 2 1 1 30 83 21 101
24 4 2 1 1 30 21 54 101
25 4 2 1 1 45 18 19 81
26 4 2 1 1 19 45 81 99
27 4 2 1 1 99 81 19 84
28 4 2 1 1 19 45 99 46
29 4 2 1 1 84 19 99 46
30 4 2 1 1 84 99 102 46
31 4 2 1 1 99 81 84 82
32 4 2 1 1 84 99 82 100
33 4 2 1 1 100 82 84 85
34 4 2 1 1 84 99 100 102
35 4 2 1 1 85 84 100 102
36 4 2 1 1 85 100 103 102
37 4 2 1 1 100 82 85 83
38 4 2 1 1 85 100 83 101
39 4 2 1 1 101 83 85 86
40 4 2 1 1 85 100 101 103
41 4 2 1 1 86 85 101 103
42 4 2 1 1 86 101 104 103
43 4 2 1 1 101 83 86 30
44 4 2 1 1 86 101 30 54
45 4 2 1 1 54 30 86 31
46 4 2 1 1 86 101 54 104
47 4 2 1 1 31 86 54 104
48 4 2 1 1 31 54 55 104
49 4 2 1 1 46 19 20 84
50 4 2 1 1 20 46 84 102
51 4 2 1 1 102 84 20 87
52 4 2 1 1 20 46 102 47
53 4 2 1 1 87 20 102 47
54 4 2 1 1 87 102 105 47
55 4 2 1 1 102 84 87 85
56 4 2 1 1 87 102 85 103
57 4 2 1 1 103 85 87 88
58 4 2 1 1 87 102 103 105
59 4 2 1 1 88 87 103 105
60 4 2 1 1 88 103 106 105
61 4 2 1 1 103 85 88 86
62 4 2 1 1 88 103 86 104
63 4 2 1 1 104 86 88 89
64 4 2 1 1 88 103 104 106
65 4 2 1 1 89 88 104 106
66 4 2 1 1 89 104 107 106
67 4 2 1 1 104 86 89 31
68 4 2 1 1 89 104 31 55
69 4 2 1 1 55 31 89 32
70 4 2 1 1 89 104 55 107
71 4 2 1 1 32 89 55 107
72 4 2 1 1 32 55 56 107
73 4 2 1 1 47 20 4 87
74 4 2 1 1 4 47 87 105
75 4 2 1 1 105 87 4 39
76 4 2 1 1 4 47 105 15
77 4 2 1 1 39 4 105 15
78 4 2 1 1 39 105 72 15
79 4 2 1 1 105 87 39 88
80 4 2 1 1 39 105 88 106
81 4 2 1 1 106 88 39 40
82 4 2 1 1 39 105 106 72
83 4 2 1 1 40 39 106 72
84 4 2 1 1 40 106 75 72
85 4 2 1 1 106 88 40 89
86 4 2 1 1 40 106 89 107
87 4 2 1 1 107 89 40 41
88 4 2 1 1 40 106 107 75
89 4 2 1 1 41 40 107 75
90 4 2 1 1 41 107 78 75
91 4 2 1 1 107 89 41 32
92 4 2 1 1 41 107 32 56
93 4 2 1 1 56 32 41 8
94 4 2 1 1 41 107 56 78
95 4 2 1 1 8 41 56 78
96 4 2 1 1 8 56 27 78
97 4 2 1 1 10 9 45 63
98 4 2 1 1 45 10 63 64
99 4 2 1 1 64 63 45 99
100 4 2 1 1 45 10 64 48
101 4 2 1 1 99 45 64 48
102 4 2 1 1 99 64 108 48
103 4 2 1 1 64 63 99 66
104 4 2 1 1 99 64 66 67
105 4 2 1 1 67 66 99 100
106 4 2 1 1 99 64 67 108
107 4 2 1 1 100 99 67 108
108 4 2 1 1 100 67 109 108
109 4 2 1 1 67 66 100 69
110 4 2 1 1 100 67 69 70
111 4 2 1 1 70 69 100 101
112 4 2 1 1 100 67 70 109
113 4 2 1 1 101 100 70 109
114 4 2 1 1 101 70 110 109
115 4 2 1 1 70 69 101 21
116 4 2 1 1 101 70 21 22
117 4 2 1 1 22 21 101 54
118 4 2 1 1 101 70 22 110
119 4 2 1 1 54 101 22 110
120 4 2 1 1 54 22 57 110
121 4 2 1 1 48 45 46 99
122 4 2 1 1 46 48 99 108
123 4 2 1 1 108 99 46 102
124 4 2 1 1 46 48 108 49
125 4 2 1 1 102 46 108 49
126 4 2 1 1 102 108 111 49
127 4 2 1 1 108 99 102 100
128 4 2 1 1 102 108 100 109
129 4 2 1 1 109 100 102 103
130 4 2 1 1 102 108 109 111
131 4 2 1 1 103 102 109 111
132 4 2 1 1 103 109 112 111
133 4 2 1 1 109 100 103 101
134 4 2 1 1 103 109 101 110
135 4 2 1 1 110 101 103 104
136 4 2 1 1 103 109 110 112
137 4 2 1 1 104 103 110 112
138 4 2 1 1 104 110 113 112
139 4 2 1 1 110 101 104 54
140 4 2 1 1 104 110 54 57
141 4 2 1 1 57 54 104 55
142 4 2 1 1 104 110 57 113
143 4 2 1 1 55 104 57 113
144 4 2 1 1 55 57 58 113
145 4 2 1 1 49 46 47 102
146 4 2 1 1 47 49 102 111
147 4 2 1 1 111 102 47 105
148 4 2 1 1 47 49 111 50
149 4 2 1 1 105 47 111 50
150 4 2 1 1 105 111 114 50
151 4 2 1 1 111 102 105 103
152 4 2 1 1 105 111 103 112
153 4 2 1 1 112 103 105 106
154 4 2 1 1 105 111 112 114
155 4 2 1 1 106 105 112 114
156 4 2 1 1 106 112 115 114
157 4 2 1 1 112 103 106 104
158 4 2 1 1 106 112 104 113
159 4 2 1 1 113 104 106 107
160 4 2 1 1 106 112 113 115
161 4 2 1 1 107 106 113 115
162 4 2 1 1 107 113 116 115
163 4 2 1 1 113 104 107 55
164 4 2 1 1 107 113 55 58
165 4 2 1 1 58 55 107 56
166 4 2 1 1 107 113 58 116
167 4 2 1 1 56 107 58 116
168 4 2 1 1 56 58 59 116
169 4 2 1 1 50 47 15 105
170 4 2 1 1 15 50 105 114
171 4 2 1 1 114 105 15 72
172 4 2 1 1 15 50 114 16
173 4 2 1 1 72 15 114 16
174 4 2 1 1 72 114 73 16
175 4 2 1 1 114 105 72 106
176 4 2 1 1 72 114 106 115
177 4 2 1 1 115 106 72 75
178 4 2 1 1 72 114 115 73
179 4 2 1 1 75 72 115 73
180 4 2 1 1 75 115 76 73
181 4 2 1 1 115 106 75 107
182 4 2 1 1 75 115 107 116
183 4 2 1 1 116 107 75 78
184 4 2 1 1 75 115 116 76
185 4 2 1 1 78 75 116 76
186 4 2 1 1 78 116 79 76
187 4 2 1 1 116 107 78 56
188 4 2 1 1 78 116 56 59
189 4 2 1 1 59 56 78 27
190 4 2 1 1 78 116 59 79
191 4 2 1 1 27 78 59 79
192 4 2 1 1 27 59 28 79
193 4 2 1 1 11 10 48 64
194 4 2 1 1 48 11 64 65
195 4 2 1 1 65 64 48 108
196 4 2 1 1 48 11 65 51
197 4 2 1 1 108 48 65 51
198 4 2 1 1 108 65 117 51
199 4 2 1 1 65 64 108 67
200 4 2 1 1 108 65 67 68
201 4 2 1 1 68 67 108 109
202 4 2 1 1 108 65 68 117
203 4 2 1 1 109 108 68 117
204 4 2 1 1 109 68 118 117
205 4 2 1 1 68 67 109 70
206 4 2 1 1 109 68 70 71
207 4 2 1 1 71 70 109 110
208 4 2 1 1 109 68 71 118
209 4 2 1 1 110 109 71 118
210 4 2 1 1 110 71 119 118
211 4 2 1 1 71 70 110 22
212 4 2 1 1 110 71 22 23
213 4 2 1 1 23 22 110 57
214 4 2 1 1 110 71 23 119
215 4 2 1 1 57 110 23 119
216 4 2 1 1 57 23 60 119
217 4 2 1 1 51 48 49 108
218 4 2 1 1 49 51 108 117
219 4 2 1 1 117 108 49 111
220 4 2 1 1 49 51 117 52
221 4 2 1 1 111 49 117 52
222 4 2 1 1 111 117 120 52
223 4 2 1 1 117 108 111 109
224 4 2 1 1 111 117 109 118
225 4 2 1 1 118 109 111 112
226 4 2 1 1 111 117 118 120
227 4 2 1 1 112 111 118 120
228 4 2 1 1 112 118 121 120
229 4 2 1 1 118 109 112 110
230 4 2 1 1 112 118 110 119
231 4 2 1 1 119 110 112 113
232 4 2 1 1 112 118 119 121
233 4 2 1 1 113 112 119 121
234 4 2 1 1 113 119 122 121
235 4 2 1 1 119 110 113 57
236 4 2 1 1 113 119 57 60
237 4 2 1 1 60 57 113 58
238 4 2 1 1 113 119 60 122
239 4 2 1 1 58 113 60 122
240 4 2 1 1 58 60 61 122
241 4 2 1 1 52 49 50 111
242 4 2 1 1 50 52 111 120
243 4 2 1 1 120 111 50 114
244 4 2 1 1 50 52 120 53
245 4 2 1 1 114 50 120 53
246 4 2 1 1 114 120 123 53
247 4 2 1 1 120 111 114 112
248 4 2 1 1 114 120 112 121
249 4 2 1 1 121 112 114 115
250 4 2 1 1 114 120 121 123
251 4 2 1 1 115 114 121 123
252 4 2 1 1 115 121 124 123
253 4 2 1 1 121 112 115 113
254 4 2 1 1 115 121 113 122
255 4 2 1 1 122 113 115 116
256 4 2 1 1 115 121 122 124
257 4 2 1 1 116 115 122 124
258 4 2 1 1 116 122 125 124
259 4 2 1 1 122 113 116 58
260 4 2 1 1 116 122 58 61
261 4 2 1 1 61 58 116 59
262 4 2 1 1 116 122 61 125
263 4 2 1 1 59 116 61 125
264 4 2 1 1 59 61 62 125
265 4 2 1 1 53 50 16 114
266 4 2 1 1 16 53 114 123
267 4 2 1 1 123 114 16 73
268 4 2 1 1 16 53 123 17
269 4 2 1 1 73 16 123 17
270 4 2 1 1 73 123 74 17
271 4 2 1 1 123 114 73 115
272 4 2 1 1 73 123 115 124
273 4 2 1 1 124 115 73 76
274 4 2 1 1 73 123 124 74
275 4 2 1 1 76 73 124 74
276 4 2 1 1 76 124 77 74
277 4 2 1 1 124 115 76 116
278 4 2 1 1 76 124 116 125
279 4 2 1 1 125 116 76 79
280 4 2 1 1 76 124 125 77
281 4 2 1 1 79 76 125 77
282 4 2 1 1 79 125 80 77
283 4 2 1 1 125 116 79 59
284 4 2 1 1 79 125 59 62
285 4 2 1 1 62 59 79 28
286 4 2 1 1 79 125 62 80
287 4 2 1 1 28 79 62 80
288 4 2 1 1 28 62 29 80
289 4 2 1 1 1 11 51 65
290 4 2 1 1 51 1 65 36
291 4 2 1 1 36 65 51 117
292 4 2 1 1 51 1 36 12
293 4 2 1 1 117 51 36 12
294 4 2 1 1 117 36 90 12
295 4 2 1 1 36 65 117 68
296 4 2 1 1 117 36 68 37
297 4 2 1 1 37 68 117 118
298 4 2 1 1 117 36 37 90
299 4 2 1 1 118 117 37 90
300 4 2 1 1 118 37 91 90
301 4 2 1 1 37 68 118 71
302 4 2 1 1 118 37 71 38
303 4 2 1 1 38 71 118 119
304 4 2 1 1 118 37 38 91
305 4 2 1 1 119 118 38 91
306 4 2 1 1 119 38 92 91
307 4 2 1 1 38 71 119 23
308 4 2 1 1 119 38 23 5
309 4 2 1 1 5 23 119 60
310 4 2 1 1 119 38 5 92
311 4 2 1 1 60 119 5 92
312 4 2 1 1 60 5 24 92
313 4 2 1 1 12 51 52 117
314 4 2 1 1 52 12 117 90
315 4 2 1 1 90 117 52 120
316 4 2 1 1 52 12 90 13
317 4 2 1 1 120 52 90 13
318 4 2 1 1 120 90 93 13
319 4 2 1 1 90 117 120 118
320 4 2 1 1 120 90 118 91
321 4 2 1 1 91 118 120 121
322 4 2 1 1 120 90 91 93
323 4 2 1 1 121 120 91 93
324 4 2 1 1 121 91 94 93
325 4 2 1 1 91 118 121 119
326 4 2 1 1 121 91 119 92
327 4 2 1 1 92 119 121 122
328 4 2 1 1 121 91 92 94
329 4 2 1 1 122 121 92 94
330 4 2 1 1 122 92 95 94
331 4 2 1 1 92 119 122 60
332 4 2 1 1 122 92 60 24
333 4 2 1 1 24 60 122 61
334 4 2 1 1 122 92 24 95
335 4 2 1 1 61 122 24 95
336 4 2 1 1 61 24 25 95
337 4 2 1 1 13 52 53 120
338 4 2 1 1 53 13 120 93
339 4 2 1 1 93 120 53 123
340 4 2 1 1 53 13 93 14
341 4 2 1 1 123 53 93 14
342 4 2 1 1 123 93 96 14
343 4 2 1 1 93 120 123 121
344 4 2 1 1 123 93 121 94
345 4 2 1 1 94 121 123 124
346 4 2 1 1 123 93 94 96
347 4 2 1 1 124 123 94 96
348 4 2 1 1 124 94 97 96
349 4 2 1 1 94 121 124 122
350 4 2 1 1 124 94 122 95
351 4 2 1 1 95 122 124 125
352 4 2 1 1 124 94 95 97
353 4 2 1 1 125 124 95 97
354 4 2 1 1 125 95 98 97
355 4 2 1 1 95 122 125 61
356 4 2 1 1 125 95 61 25
357 4 2 1 1 25 61 125 62
358 4 2 1 1 125 95 25 98
359 4 2 1 1 62 125 25 98
360 4 2 1 1 62 25 26 98
361 4 2 1 1 14 53 17 123
362 4 2 1 1 17 14 123 96
363 4 2 1 1 96 123 17 74
364 4 2 1 1 17 14 96 3
365 4 2 1 1 74 17 96 3
366 4 2 1 1 74 96 42 3
367 4 2 1 1 96 123 74 124
368 4 2 1 1 74 96 124 97
369 4 2 1 1 97 124 74 77
370 4 2 1 1 74 96 97 42
371 4 2 1 1 77 74 97 42
372 4 2 1 1 77 97 43 42
373 4 2 1 1 97 124 77 125
374 4 2 1 1 77 97 125 98
375 4 2 1 1 98 125 77 80
376 4 2 1 1 77 97 98 43
377 4 2 1 1 80 77 98 43
378 4 2 1 1 80 98 44 43
379 4 2 1 1 98 125 80 62
380 4 2 1 1 80 98 62 26
381 4 2 1 1 26 62 80 29
382 4 2 1 1 80 98 26 44
383 4 2 1 1 29 80 26 44
384 4 2 1 1 29 26 7 44
$EndElements
