$MeshFormat
2.2 0 8
$EndMeshFormat
$PhysicalNames
1
3 1 "domain"
$EndPhysicalNames
$Nodes
729
1 0 0 2
2 0 0 0
3 0 2 2
4 0 2 0
5 2 0 2
6 2 0 0
7 2 2 2
8 2 2 0
9 0 0 0.25
10 0 0 0.5
11 0 0 0.75
12 0 0 1
13 0 0 1.25
14 0 0 1.5
15 0 0 1.75
16 0 0.25 2
17 0 0.5 2
18 0 0.75 2
19 0 1 2
20 0 1.25 2
21 0 1.5 2
22 0 1.75 2
23 0 2 0.25
24 0 2 0.5
25 0 2 0.75
26 0 2 1
27 0 2 1.25
28 0 2 1.5
29 0 2 1.75
30 0 0.25 0
31 0 0.5 0
32 0 0.75 0
33 0 1 0
34 0 1.25 0
35 0 1.5 0
36 0 1.75 0
37 2 0 0.25
38 2 0 0.5
39 2 0 0.75
40 2 0 1
41 2 0 1.25
42 2 0 1.5
43 2 0 1.75
44 2 0.25 2
45 2 0.5 2
46 2 0.75 2
47 2 1 2
48 2 1.25 2
49 2 1.5 2
50 2 1.75 2
51 2 2 0.25
52 2 2 0.5
53 2 2 0.75
54 2 2 1
55 2 2 1.25
56 2 2 1.5
57 2 2 1.75
58 2 0.25 0
59 2 0.5 0
60 2 0.75 0
61 2 1 0
62 2 1.25 0
63 2 1.5 0
64 2 1.75 0
65 0.25 0 0
66 0.5 0 0
67 0.75 0 0
68 1 0 0
69 1.25 0 0
70 1.5 0 0
71 1.75 0 0
72 0.25 0 2
73 0.5 0 2
74 0.75 0 2
75 1 0 2
76 1.25 0 2
77 1.5 0 2
78 1.75 0 2
79 0.25 2 0
80 0.5 2 0
81 0.75 2 0
82 1 2 0
83 1.25 2 0
84 1.5 2 0
85 1.75 2 0
86 0.25 2 2
87 0.5 2 2
88 0.75 2 2
89 1 2 2
90 1.25 2 2
91 1.5 2 2
92 1.75 2 2
93 0 0.25 0.25
94 0 0.5 0.25
95 0 0.75 0.25
96 0 1 0.25
97 0 1.25 0.25
98 0 1.5 0.25
99 0 1.75 0.25
100 0 0.25 0.5
101 0 0.5 0.5
102 0 0.75 0.5
103 0 1 0.5
104 0 1.25 0.5
105 0 1.5 0.5
106 0 1.75 0.5
107 0 0.25 0.75
108 0 0.5 0.75
109 0 0.75 0.75
110 0 1 0.75
111 0 1.25 0.75
112 0 1.5 0.75
113 0 1.75 0.75
114 0 0.25 1
115 0 0.5 1
116 0 0.75 1
117 0 1 1
118 0 1.25 1
119 0 1.5 1
120 0 1.75 1
121 0 0.25 1.25
122 0 0.5 1.25
123 0 0.75 1.25
124 0 1 1.25
125 0 1.25 1.25
126 0 1.5 1.25
127 0 1.75 1.25
128 0 0.25 1.5
129 0 0.5 1.5
130 0 0.75 1.5
131 0 1 1.5
132 0 1.25 1.5
133 0 1.5 1.5
134 0 1.75 1.5
135 0 0.25 1.75
136 0 0.5 1.75
137 0 0.75 1.75
138 0 1 1.75
139 0 1.25 1.75
140 0 1.5 1.75
141 0 1.75 1.75
142 2 0.25 0.25
143 2 0.5 0.25
144 2 0.75 0.25
145 2 1 0.25
146 2 1.25 0.25
147 2 1.5 0.25
148 2 1.75 0.25
149 2 0.25 0.5
150 2 0.5 0.5
151 2 0.75 0.5
152 2 1 0.5
153 2 1.25 0.5
154 2 1.5 0.5
155 2 1.75 0.5
156 2 0.25 0.75
157 2 0.5 0.75
158 2 0.75 0.75
159 2 1 0.75
160 2 1.25 0.75
161 2 1.5 0.75
162 2 1.75 0.75
163 2 0.25 1
164 2 0.5 1
165 2 0.75 1
166 2 1 1
167 2 1.25 1
168 2 1.5 1
169 2 1.75 1
170 2 0.25 1.25
171 2 0.5 1.25
172 2 0.75 1.25
173 2 1 1.25
174 2 1.25 1.25
175 2 1.5 1.25
176 2 1.75 1.25
177 2 0.25 1.5
178 2 0.5 1.5
179 2 0.75 1.5
180 2 1 1.5
181 2 1.25 1.5
182 2 1.5 1.5
183 2 1.75 1.5
184 2 0.25 1.75
185 2 0.5 1.75
186 2 0.75 1.75
187 2 1 1.75
188 2 1.25 1.75
189 2 1.5 1.75
190 2 1.75 1.75
191 0.25 0 0.25
192 0.25 0 0.5
193 0.25 0 0.75
194 0.25 0 1
195 0.25 0 1.25
196 0.25 0 1.5
197 0.25 0 1.75
198 0.5 0 0.25
199 0.5 0 0.5
200 0.5 0 0.75
201 0.5 0 1
202 0.5 0 1.25
203 0.5 0 1.5
204 0.5 0 1.75
205 0.75 0 0.25
206 0.75 0 0.5
207 0.75 0 0.75
208 0.75 0 1
209 0.75 0 1.25
210 0.75 0 1.5
211 0.75 0 1.75
212 1 0 0.25
213 1 0 0.5
214 1 0 0.75
215 1 0 1
216 1 0 1.25
217 1 0 1.5
218 1 0 1.75
219 1.25 0 0.25
220 1.25 0 0.5
221 1.25 0 0.75
222 1.25 0 1
223 1.25 0 1.25
224 1.25 0 1.5
225 1.25 0 1.75
226 1.5 0 0.25
227 1.5 0 0.5
228 1.5 0 0.75
229 1.5 0 1
230 1.5 0 1.25
231 1.5 0 1.5
232 1.5 0 1.75
233 1.75 0 0.25
234 1.75 0 0.5
235 1.75 0 0.75
236 1.75 0 1
237 1.75 0 1.25
238 1.75 0 1.5
239 1.75 0 1.75
240 0.25 2 0.25
241 0.25 2 0.5
242 0.25 2 0.75
243 0.25 2 1
244 0.25 2 1.25
245 0.25 2 1.5
246 0.25 2 1.75
247 0.5 2 0.25
248 0.5 2 0.5
249 0.5 2 0.75
250 0.5 2 1
251 0.5 2 1.25
252 0.5 2 1.5
253 0.5 2 1.75
254 0.75 2 0.25
255 0.75 2 0.5
256 0.75 2 0.75
257 0.75 2 1
258 0.75 2 1.25
259 0.75 2 1.5
260 0.75 2 1.75
261 1 2 0.25
262 1 2 0.5
263 1 2 0.75
264 1 2 1
265 1 2 1.25
266 1 2 1.5
267 1 2 1.75
268 1.25 2 0.25
269 1.25 2 0.5
270 1.25 2 0.75
271 1.25 2 1
272 1.25 2 1.25
273 1.25 2 1.5
274 1.25 2 1.75
275 1.5 2 0.25
276 1.5 2 0.5
277 1.5 2 0.75
278 1.5 2 1
279 1.5 2 1.25
280 1.5 2 1.5
281 1.5 2 1.75
282 1.75 2 0.25
283 1.75 2 0.5
284 1.75 2 0.75
285 1.75 2 1
286 1.75 2 1.25
287 1.75 2 1.5
288 1.75 2 1.75
289 0.25 0.25 0
290 0.5 0.25 0
291 0.75 0.25 0
292 1 0.25 0
293 1.25 0.25 0
294 1.5 0.25 0
295 1.75 0.25 0
296 0.25 0.5 0
297 0.5 0.5 0
298 0.75 0.5 0
299 1 0.5 0
300 1.25 0.5 0
301 1.5 0.5 0
302 1.75 0.5 0
303 0.25 0.75 0
304 0.5 0.75 0
305 0.75 0.75 0
306 1 0.75 0
307 1.25 0.75 0
308 1.5 0.75 0
309 1.75 0.75 0
310 0.25 1 0
311 0.5 1 0
312 0.75 1 0
313 1 1 0
314 1.25 1 0
315 1.5 1 0
316 1.75 1 0
317 0.25 1.25 0
318 0.5 1.25 0
319 0.75 1.25 0
320 1 1.25 0
321 1.25 1.25 0
322 1.5 1.25 0
323 1.75 1.25 0
324 0.25 1.5 0
325 0.5 1.5 0
326 0.75 1.5 0
327 1 1.5 0
328 1.25 1.5 0
329 1.5 1.5 0
330 1.75 1.5 0
331 0.25 1.75 0
332 0.5 1.75 0
333 0.75 1.75 0
334 1 1.75 0
335 1.25 1.75 0
336 1.5 1.75 0
337 1.75 1.75 0
338 0.25 0.25 2
339 0.5 0.25 2
340 0.75 0.25 2
341 1 0.25 2
342 1.25 0.25 2
343 1.5 0.25 2
344 1.75 0.25 2
345 0.25 0.5 2
346 0.5 0.5 2
347 0.75 0.5 2
348 1 0.5 2
349 1.25 0.5 2
350 1.5 0.5 2
351 1.75 0.5 2
352 0.25 0.75 2
353 0.5 0.75 2
354 0.75 0.75 2
355 1 0.75 2
356 1.25 0.75 2
357 1.5 0.75 2
358 1.75 0.75 2
359 0.25 1 2
360 0.5 1 2
361 0.75 1 2
362 1 1 2
363 1.25 1 2
364 1.5 1 2
365 1.75 1 2
366 0.25 1.25 2
367 0.5 1.25 2
368 0.75 1.25 2
369 1 1.25 2
370 1.25 1.25 2
371 1.5 1.25 2
372 1.75 1.25 2
373 0.25 1.5 2
374 0.5 1.5 2
375 0.75 1.5 2
376 1 1.5 2
377 1.25 1.5 2
378 1.5 1.5 2
379 1.75 1.5 2
380 0.25 1.75 2
381 0.5 1.75 2
382 0.75 1.75 2
383 1 1.75 2
384 1.25 1.75 2
385 1.5 1.75 2
386 1.75 1.75 2
387 0.25 0.25 0.25
388 0.5 0.25 0.25
389 0.75 0.25 0.25
390 1 0.25 0.25
391 1.25 0.25 0.25
392 1.5 0.25 0.25
393 1.75 0.25 0.25
394 0.25 0.5 0.25
395 0.5 0.5 0.25
396 0.75 0.5 0.25
397 1 0.5 0.25
398 1.25 0.5 0.25
399 1.5 0.5 0.25
400 1.75 0.5 0.25
401 0.25 0.75 0.25
402 0.5 0.75 0.25
403 0.75 0.75 0.25
404 1 0.75 0.25
405 1.25 0.75 0.25
406 1.5 0.75 0.25
407 1.75 0.75 0.25
408 0.25 1 0.25
409 0.5 1 0.25
410 0.75 1 0.25
411 1 1 0.25
412 1.25 1 0.25
413 1.5 1 0.25
414 1.75 1 0.25
415 0.25 1.25 0.25
416 0.5 1.25 0.25
417 0.75 1.25 0.25
418 1 1.25 0.25
419 1.25 1.25 0.25
420 1.5 1.25 0.25
421 1.75 1.25 0.25
422 0.25 1.5 0.25
423 0.5 1.5 0.25
424 0.75 1.5 0.25
425 1 1.5 0.25
426 1.25 1.5 0.25
427 1.5 1.5 0.25
428 1.75 1.5 0.25
429 0.25 1.75 0.25
430 0.5 1.75 0.25
431 0.75 1.75 0.25
432 1 1.75 0.25
433 1.25 1.75 0.25
434 1.5 1.75 0.25
435 1.75 1.75 0.25
436 0.25 0.25 0.5
437 0.5 0.25 0.5
438 0.75 0.25 0.5
439 1 0.25 0.5
440 1.25 0.25 0.5
441 1.5 0.25 0.5
442 1.75 0.25 0.5
443 0.25 0.5 0.5
444 0.5 0.5 0.5
445 0.75 0.5 0.5
446 1 0.5 0.5
447 1.25 0.5 0.5
448 1.5 0.5 0.5
449 1.75 0.5 0.5
450 0.25 0.75 0.5
451 0.5 0.75 0.5
452 0.75 0.75 0.5
453 1 0.75 0.5
454 1.25 0.75 0.5
455 1.5 0.75 0.5
456 1.75 0.75 0.5
457 0.25 1 0.5
458 0.5 1 0.5
459 0.75 1 0.5
460 1 1 0.5
461 1.25 1 0.5
462 1.5 1 0.5
463 1.75 1 0.5
464 0.25 1.25 0.5
465 0.5 1.25 0.5
466 0.75 1.25 0.5
467 1 1.25 0.5
468 1.25 1.25 0.5
469 1.5 1.25 0.5
470 1.75 1.25 0.5
471 0.25 1.5 0.5
472 0.5 1.5 0.5
473 0.75 1.5 0.5
474 1 1.5 0.5
475 1.25 1.5 0.5
476 1.5 1.5 0.5
477 1.75 1.5 0.5
478 0.25 1.75 0.5
479 0.5 1.75 0.5
480 0.75 1.75 0.5
481 1 1.75 0.5
482 1.25 1.75 0.5
483 1.5 1.75 0.5
484 1.75 1.75 0.5
485 0.25 0.25 0.75
486 0.5 0.25 0.75
487 0.75 0.25 0.75
488 1 0.25 0.75
489 1.25 0.25 0.75
490 1.5 0.25 0.75
491 1.75 0.25 0.75
492 0.25 0.5 0.75
493 0.5 0.5 0.75
494 0.75 0.5 0.75
495 1 0.5 0.75
496 1.25 0.5 0.75
497 1.5 0.5 0.75
498 1.75 0.5 0.75
499 0.25 0.75 0.75
500 0.5 0.75 0.75
501 0.75 0.75 0.75
502 1 0.75 0.75
503 1.25 0.75 0.75
504 1.5 0.75 0.75
505 1.75 0.75 0.75
506 0.25 1 0.75
507 0.5 1 0.75
508 0.75 1 0.75
509 1 1 0.75
510 1.25 1 0.75
511 1.5 1 0.75
512 1.75 1 0.75
513 0.25 1.25 0.75
514 0.5 1.25 0.75
515 0.75 1.25 0.75
516 1 1.25 0.75
517 1.25 1.25 0.75
518 1.5 1.25 0.75
519 1.75 1.25 0.75
520 0.25 1.5 0.75
521 0.5 1.5 0.75
522 0.75 1.5 0.75
523 1 1.5 0.75
524 1.25 1.5 0.75
525 1.5 1.5 0.75
526 1.75 1.5 0.75
527 0.25 1.75 0.75
528 0.5 1.75 0.75
529 0.75 1.75 0.75
530 1 1.75 0.75
531 1.25 1.75 0.75
532 1.5 1.75 0.75
533 1.75 1.75 0.75
534 0.25 0.25 1
535 0.5 0.25 1
536 0.75 0.25 1
537 1 0.25 1
538 1.25 0.25 1
539 1.5 0.25 1
540 1.75 0.25 1
541 0.25 0.5 1
542 0.5 0.5 1
543 0.75 0.5 1
544 1 0.5 1
545 1.25 0.5 1
546 1.5 0.5 1
547 1.75 0.5 1
548 0.25 0.75 1
549 0.5 0.75 1
550 0.75 0.75 1
551 1 0.75 1
552 1.25 0.75 1
553 1.5 0.75 1
554 1.75 0.75 1
555 0.25 1 1
556 0.5 1 1
557 0.75 1 1
558 1 1 1
559 1.25 1 1
560 1.5 1 1
561 1.75 1 1
562 0.25 1.25 1
563 0.5 1.25 1
564 0.75 1.25 1
565 1 1.25 1
566 1.25 1.25 1
567 1.5 1.25 1
568 1.75 1.25 1
569 0.25 1.5 1
570 0.5 1.5 1
571 0.75 1.5 1
572 1 1.5 1
573 1.25 1.5 1
574 1.5 1.5 1
575 1.75 1.5 1
576 0.25 1.75 1
577 0.5 1.75 1
578 0.75 1.75 1
579 1 1.75 1
580 1.25 1.75 1
581 1.5 1.75 1
582 1.75 1.75 1
583 0.25 0.25 1.25
584 0.5 0.25 1.25
585 0.75 0.25 1.25
586 1 0.25 1.25
587 1.25 0.25 1.25
588 1.5 0.25 1.25
589 1.75 0.25 1.25
590 0.25 0.5 1.25
591 0.5 0.5 1.25
592 0.75 0.5 1.25
593 1 0.5 1.25
594 1.25 0.5 1.25
595 1.5 0.5 1.25
596 1.75 0.5 1.25
597 0.25 0.75 1.25
598 0.5 0.75 1.25
599 0.75 0.75 1.25
600 1 0.75 1.25
601 1.25 0.75 1.25
602 1.5 0.75 1.25
603 1.75 0.75 1.25
604 0.25 1 1.25
605 0.5 1 1.25
606 0.75 1 1.25
607 1 1 1.25
608 1.25 1 1.25
609 1.5 1 1.25
610 1.75 1 1.25
611 0.25 1.25 1.25
612 0.5 1.25 1.25
613 0.75 1.25 1.25
614 1 1.25 1.25
615 1.25 1.25 1.25
616 1.5 1.25 1.25
617 1.75 1.25 1.25
618 0.25 1.5 1.25
619 0.5 1.5 1.25
620 0.75 1.5 1.25
621 1 1.5 1.25
622 1.25 1.5 1.25
623 1.5 1.5 1.25
624 1.75 1.5 1.25
625 0.25 1.75 1.25
626 0.5 1.75 1.25
627 0.75 1.75 1.25
628 1 1.75 1.25
629 1.25 1.75 1.25
630 1.5 1.75 1.25
631 1.75 1.75 1.25
632 0.25 0.25 1.5
633 0.5 0.25 1.5
634 0.75 0.25 1.5
635 1 0.25 1.5
636 1.25 0.25 1.5
637 1.5 0.25 1.5
638 1.75 0.25 1.5
639 0.25 0.5 1.5
640 0.5 0.5 1.5
641 0.75 0.5 1.5
642 1 0.5 1.5
643 1.25 0.5 1.5
644 1.5 0.5 1.5
645 1.75 0.5 1.5
646 0.25 0.75 1.5
647 0.5 0.75 1.5
648 0.75 0.75 1.5
649 1 0.75 1.5
650 1.25 0.75 1.5
651 1.5 0.75 1.5
652 1.75 0.75 1.5
653 0.25 1 1.5
654 0.5 1 1.5
655 0.75 1 1.5
656 1 1 1.5
657 1.25 1 1.5
658 1.5 1 1.5
659 1.75 1 1.5
660 0.25 1.25 1.5
661 0.5 1.25 1.5
662 0.75 1.25 1.5
663 1 1.25 1.5
664 1.25 1.25 1.5
665 1.5 1.25 1.5
666 1.75 1.25 1.5
667 0.25 1.5 1.5
668 0.5 1.5 1.5
669 0.75 1.5 1.5
670 1 1.5 1.5
671 1.25 1.5 1.5
672 1.5 1.5 1.5
673 1.75 1.5 1.5
674 0.25 1.75 1.5
675 0.5 1.75 1.5
676 0.75 1.75 1.5
677 1 1.75 1.5
678 1.25 1.75 1.5
679 1.5 1.75 1.5
680 1.75 1.75 1.5
681 0.25 0.25 1.75
682 0.5 0.25 1.75
683 0.75 0.25 1.75
684 1 0.25 1.75
685 1.25 0.25 1.75
686 1.5 0.25 1.75
687 1.75 0.25 1.75
688 0.25 0.5 1.75
689 0.5 0.5 1.75
690 0.75 0.5 1.75
691 1 0.5 1.75
692 1.25 0.5 1.75
693 1.5 0.5 1.75
694 1.75 0.5 1.75
695 0.25 0.75 1.75
696 0.5 0.75 1.75
697 0.75 0.75 1.75
698 1 0.75 1.75
699 1.25 0.75 1.75
700 1.5 0.75 1.75
701 1.75 0.75 1.75
702 0.25 1 1.75
703 0.5 1 1.75
704 0.75 1 1.75
705 1 1 1.75
706 1.25 1 1.75
707 1.5 1 1.75
708 1.75 1 1.75
709 0.25 1.25 1.75
710 0.5 1.25 1.75
711 0.75 1.25 1.75
712 1 1.25 1.75
713 1.25 1.25 1.75
714 1.5 1.25 1.75
715 1.75 1.25 1.75
716 0.25 1.5 1.75
717 0.5 1.5 1.75
718 0.75 1.5 1.75
719 1 1.5 1.75
720 1.25 1.5 1.75
721 1.5 1.5 1.75
722 1.75 1.5 1.75
723 0.25 1.75 1.75
724 0.5 1.75 1.75
725 0.75 1.75 1.75
726 1 1.75 1.75
727 1.25 1.75 1.75
728 1.5 1.75 1.75
729 1.75 1.75 1.75
$EndNodes
$Elements
3072
1 4 2 1 1 9 2 30 65
2 4 2 1 1 30 9 65 191
3 4 2 1 1 191 65 30 289
4 4 2 1 1 30 9 191 93
5 4 2 1 1 289 30 191 93
6 4 2 1 1 289 191 387 93
7 4 2 1 1 191 65 289 66
8 4 2 1 1 289 191 66 198
9 4 2 1 1 198 66 289 290
10 4 2 1 1 289 191 198 387
11 4 2 1 1 290 289 198 387
12 4 2 1 1 290 198 388 387
13 4 2 1 1 198 66 290 67
14 4 2 1 1 290 198 67 205
15 4 2 1 1 205 67 290 291
16 4 2 1 1 290 198 205 388
17 4 2 1 1 291 290 205 388
18 4 2 1 1 291 205 389 388
19 4 2 1 1 205 67 291 68
20 4 2 1 1 291 205 68 212
21 4 2 1 1 212 68 291 292
22 4 2 1 1 291 205 212 389
23 4 2 1 1 292 291 212 389
24 4 2 1 1 292 212 390 389
25 4 2 1 1 212 68 292 69
26 4 2 1 1 292 212 69 219
27 4 2 1 1 219 69 292 293
28 4 2 1 1 292 212 219 390
29 4 2 1 1 293 292 219 390
30 4 2 1 1 293 219 391 390
31 4 2 1 1 219 69 293 70
32 4 2 1 1 293 219 70 226
33 4 2 1 1 226 70 293 294
34 4 2 1 1 293 219 226 391
35 4 2 1 1 294 293 226 391
36 4 2 1 1 294 226 392 391
37 4 2 1 1 226 70 294 71
38 4 2 1 1 294 226 71 233
39 4 2 1 1 233 71 294 295
40 4 2 1 1 294 226 233 392
41 4 2 1 1 295 294 233 392
42 4 2 1 1 295 233 393 392
43 4 2 1 1 233 71 295 6
44 4 2 1 1 295 233 6 37
45 4 2 1 1 37 6 295 58
46 4 2 1 1 295 233 37 393
47 4 2 1 1 58 295 37 393
48 4 2 1 1 58 37 142 393
49 4 2 1 1 93 30 31 289
50 4 2 1 1 31 93 289 387
51 4 2 1 1 387 289 31 296
52 4 2 1 1 31 93 387 94
53 4 2 1 1 296 31 387 94
54 4 2 1 1 296 387 394 94
55 4 2 1 1 387 289 296 290
56 4 2 1 1 296 387 290 388
57 4 2 1 1 388 290 296 297
58 4 2 1 1 296 387 388 394
59 4 2 1 1 297 296 388 394
60 4 2 1 1 297 388 395 394
61 4 2 1 1 388 290 297 291
62 4 2 1 1 297 388 291 389
63 4 2 1 1 389 291 297 298
64 4 2 1 1 297 388 389 395
65 4 2 1 1 298 297 389 395
66 4 2 1 1 298 389 396 395
67 4 2 1 1 389 291 298 292
68 4 2 1 1 298 389 292 390
69 4 2 1 1 390 292 298 299
70 4 2 1 1 298 389 390 396
71 4 2 1 1 299 298 390 396
72 4 2 1 1 299 390 397 396
73 4 2 1 1 390 292 299 293
74 4 2 1 1 299 390 293 391
75 4 2 1 1 391 293 299 300
76 4 2 1 1 299 390 391 397
77 4 2 1 1 300 299 391 397
78 4 2 1 1 300 391 398 397
79 4 2 1 1 391 293 300 294
80 4 2 1 1 300 391 294 392
81 4 2 1 1 392 294 300 301
82 4 2 1 1 300 391 392 398
83 4 2 1 1 301 300 392 398
84 4 2 1 1 301 392 399 398
85 4 2 1 1 392 294 301 295
86 4 2 1 1 301 392 295 393
87 4 2 1 1 393 295 301 302
88 4 2 1 1 301 392 393 399
89 4 2 1 1 302 301 393 399
90 4 2 1 1 302 393 400 399
91 4 2 1 1 393 295 302 58
92 4 2 1 1 302 393 58 142
93 4 2 1 1 142 58 302 59
94 4 2 1 1 302 393 142 400
95 4 2 1 1 59 302 142 400
96 4 2 1 1 59 142 143 400
97 4 2 1 1 94 31 32 296
98 4 2 1 1 32 94 296 394
99 4 2 1 1 394 296 32 303
100 4 2 1 1 32 94 394 95
101 4 2 1 1 303 32 394 95
102 4 2 1 1 303 394 401 95
103 4 2 1 1 394 296 303 297
104 4 2 1 1 303 394 297 395
105 4 2 1 1 395 297 303 304
106 4 2 1 1 303 394 395 401
107 4 2 1 1 304 303 395 401
108 4 2 1 1 304 395 402 401
109 4 2 1 1 395 297 304 298
110 4 2 1 1 304 395 298 396
111 4 2 1 1 396 298 304 305
112 4 2 1 1 304 395 396 402
113 4 2 1 1 305 304 396 402
114 4 2 1 1 305 396 403 402
115 4 2 1 1 396 298 305 299
116 4 2 1 1 305 396 299 397
117 4 2 1 1 397 299 305 306
118 4 2 1 1 305 396 397 403
119 4 2 1 1 306 305 397 403
120 4 2 1 1 306 397 404 403
121 4 2 1 1 397 299 306 300
122 4 2 1 1 306 397 300 398
123 4 2 1 1 398 300 306 307
124 4 2 1 1 306 397 398 404
125 4 2 1 1 307 306 398 404
126 4 2 1 1 307 398 405 404
127 4 2 1 1 398 300 307 301
128 4 2 1 1 307 398 301 399
129 4 2 1 1 399 301 307 308
130 4 2 1 1 307 398 399 405
131 4 2 1 1 308 307 399 405
132 4 2 1 1 308 399 406 405
133 4 2 1 1 399 301 308 302
134 4 2 1 1 308 399 302 400
135 4 2 1 1 400 302 308 309
136 4 2 1 1 308 399 400 406
137 4 2 1 1 309 308 400 406
138 4 2 1 1 309 400 407 406
139 4 2 1 1 400 302 309 59
140 4 2 1 1 309 400 59 143
141 4 2 1 1 143 59 309 60
142 4 2 1 1 309 400 143 407
143 4 2 1 1 60 309 143 407
144 4 2 1 1 60 143 144 407
145 4 2 1 1 95 32 33 303
146 4 2 1 1 33 95 303 401
147 4 2 1 1 401 303 33 310
148 4 2 1 1 33 95 401 96
149 4 2 1 1 310 33 401 96
150 4 2 1 1 310 401 408 96
151 4 2 1 1 401 303 310 304
152 4 2 1 1 310 401 304 402
153 4 2 1 1 402 304 310 311
154 4 2 1 1 310 401 402 408
155 4 2 1 1 311 310 402 408
156 4 2 1 1 311 402 409 408
157 4 2 1 1 402 304 311 305
158 4 2 1 1 311 402 305 403
159 4 2 1 1 403 305 311 312
160 4 2 1 1 311 402 403 409
161 4 2 1 1 312 311 403 409
162 4 2 1 1 312 403 410 409
163 4 2 1 1 403 305 312 306
164 4 2 1 1 312 403 306 404
165 4 2 1 1 404 306 312 313
166 4 2 1 1 312 403 404 410
167 4 2 1 1 313 312 404 410
168 4 2 1 1 313 404 411 410
169 4 2 1 1 404 306 313 307
170 4 2 1 1 313 404 307 405
171 4 2 1 1 405 307 313 314
172 4 2 1 1 313 404 405 411
173 4 2 1 1 314 313 405 411
174 4 2 1 1 314 405 412 411
175 4 2 1 1 405 307 314 308
176 4 2 1 1 314 405 308 406
177 4 2 1 1 406 308 314 315
178 4 2 1 1 314 405 406 412
179 4 2 1 1 315 314 406 412
180 4 2 1 1 315 406 413 412
181 4 2 1 1 406 308 315 309
182 4 2 1 1 315 406 309 407
183 4 2 1 1 407 309 315 316
184 4 2 1 1 315 406 407 413
185 4 2 1 1 316 315 407 413
186 4 2 1 1 316 407 414 413
187 4 2 1 1 407 309 316 60
188 4 2 1 1 316 407 60 144
189 4 2 1 1 144 60 316 61
190 4 2 1 1 316 407 144 414
191 4 2 1 1 61 316 144 414
192 4 2 1 1 61 144 145 414
193 4 2 1 1 96 33 34 310
194 4 2 1 1 34 96 310 408
195 4 2 1 1 408 310 34 317
196 4 2 1 1 34 96 408 97
197 4 2 1 1 317 34 408 97
198 4 2 1 1 317 408 415 97
199 4 2 1 1 408 310 317 311
200 4 2 1 1 317 408 311 409
201 4 2 1 1 409 311 317 318
202 4 2 1 1 317 408 409 415
203 4 2 1 1 318 317 409 415
204 4 2 1 1 318 409 416 415
205 4 2 1 1 409 311 318 312
206 4 2 1 1 318 409 312 410
207 4 2 1 1 410 312 318 319
208 4 2 1 1 318 409 410 416
209 4 2 1 1 319 318 410 416
210 4 2 1 1 319 410 417 416
211 4 2 1 1 410 312 319 313
212 4 2 1 1 319 410 313 411
213 4 2 1 1 411 313 319 320
214 4 2 1 1 319 410 411 417
215 4 2 1 1 320 319 411 417
216 4 2 1 1 320 411 418 417
217 4 2 1 1 411 313 320 314
218 4 2 1 1 320 411 314 412
219 4 2 1 1 412 314 320 321
220 4 2 1 1 320 411 412 418
221 4 2 1 1 321 320 412 418
222 4 2 1 1 321 412 419 418
223 4 2 1 1 412 314 321 315
224 4 2 1 1 321 412 315 413
225 4 2 1 1 413 315 321 322
226 4 2 1 1 321 412 413 419
227 4 2 1 1 322 321 413 419
228 4 2 1 1 322 413 420 419
229 4 2 1 1 413 315 322 316
230 4 2 1 1 322 413 316 414
231 4 2 1 1 414 316 322 323
232 4 2 1 1 322 413 414 420
233 4 2 1 1 323 322 414 420
234 4 2 1 1 323 414 421 420
235 4 2 1 1 414 316 323 61
236 4 2 1 1 323 414 61 145
237 4 2 1 1 145 61 323 62
238 4 2 1 1 323 414 145 421
239 4 2 1 1 62 323 145 421
240 4 2 1 1 62 145 146 421
241 4 2 1 1 97 34 35 317
242 4 2 1 1 35 97 317 415
243 4 2 1 1 415 317 35 324
244 4 2 1 1 35 97 415 98
245 4 2 1 1 324 35 415 98
246 4 2 1 1 324 415 422 98
247 4 2 1 1 415 317 324 318
248 4 2 1 1 324 415 318 416
249 4 2 1 1 416 318 324 325
250 4 2 1 1 324 415 416 422
251 4 2 1 1 325 324 416 422
252 4 2 1 1 325 416 423 422
253 4 2 1 1 416 318 325 319
254 4 2 1 1 325 416 319 417
255 4 2 1 1 417 319 325 326
256 4 2 1 1 325 416 417 423
257 4 2 1 1 326 325 417 423
258 4 2 1 1 326 417 424 423
259 4 2 1 1 417 319 326 320
260 4 2 1 1 326 417 320 418
261 4 2 1 1 418 320 326 327
262 4 2 1 1 326 417 418 424
263 4 2 1 1 327 326 418 424
264 4 2 1 1 327 418 425 424
265 4 2 1 1 418 320 327 321
266 4 2 1 1 327 418 321 419
267 4 2 1 1 419 321 327 328
268 4 2 1 1 327 418 419 425
269 4 2 1 1 328 327 419 425
270 4 2 1 1 328 419 426 425
271 4 2 1 1 419 321 328 322
272 4 2 1 1 328 419 322 420
273 4 2 1 1 420 322 328 329
274 4 2 1 1 328 419 420 426
275 4 2 1 1 329 328 420 426
276 4 2 1 1 329 420 427 426
277 4 2 1 1 420 322 329 323
278 4 2 1 1 329 420 323 421
279 4 2 1 1 421 323 329 330
280 4 2 1 1 329 420 421 427
281 4 2 1 1 330 329 421 427
282 4 2 1 1 330 421 428 427
283 4 2 1 1 421 323 330 62
284 4 2 1 1 330 421 62 146
285 4 2 1 1 146 62 330 63
286 4 2 1 1 330 421 146 428
287 4 2 1 1 63 330 146 428
288 4 2 1 1 63 146 147 428
289 4 2 1 1 98 35 36 324
290 4 2 1 1 36 98 324 422
291 4 2 1 1 422 324 36 331
292 4 2 1 1 36 98 422 99
293 4 2 1 1 331 36 422 99
294 4 2 1 1 331 422 429 99
295 4 2 1 1 422 324 331 325
296 4 2 1 1 331 422 325 423
297 4 2 1 1 423 325 331 332
298 4 2 1 1 331 422 423 429
299 4 2 1 1 332 331 423 429
300 4 2 1 1 332 423 430 429
301 4 2 1 1 423 325 332 326
302 4 2 1 1 332 423 326 424
303 4 2 1 1 424 326 332 333
304 4 2 1 1 332 423 424 430
305 4 2 1 1 333 332 424 430
306 4 2 1 1 333 424 431 430
307 4 2 1 1 424 326 333 327
308 4 2 1 1 333 424 327 425
309 4 2 1 1 425 327 333 334
310 4 2 1 1 333 424 425 431
311 4 2 1 1 334 333 425 431
312 4 2 1 1 334 425 432 431
313 4 2 1 1 425 327 334 328
314 4 2 1 1 334 425 328 426
315 4 2 1 1 426 328 334 335
316 4 2 1 1 334 425 426 432
317 4 2 1 1 335 334 426 432
318 4 2 1 1 335 426 433 432
319 4 2 1 1 426 328 335 329
320 4 2 1 1 335 426 329 427
321 4 2 1 1 427 329 335 336
322 4 2 1 1 335 426 427 433
323 4 2 1 1 336 335 427 433
324 4 2 1 1 336 427 434 433
325 4 2 1 1 427 329 336 330
326 4 2 1 1 336 427 330 428
327 4 2 1 1 428 330 336 337
328 4 2 1 1 336 427 428 434
329 4 2 1 1 337 336 428 434
330 4 2 1 1 337 428 435 434
331 4 2 1 1 428 330 337 63
332 4 2 1 1 337 428 63 147
333 4 2 1 1 147 63 337 64
334 4 2 1 1 337 428 147 435
335 4 2 1 1 64 337 147 435
336 4 2 1 1 64 147 148 435
337 4 2 1 1 99 36 4 331
338 4 2 1 1 4 99 331 429
339 4 2 1 1 429 331 4 79
340 4 2 1 1 4 99 429 23
341 4 2 1 1 79 4 429 23
342 4 2 1 1 79 429 240 23
343 4 2 1 1 429 331 79 332
344 4 2 1 1 79 429 332 430
345 4 2 1 1 430 332 79 80
346 4 2 1 1 79 429 430 240
347 4 2 1 1 80 79 430 240
348 4 2 1 1 80 430 247 240
349 4 2 1 1 430 332 80 333
350 4 2 1 1 80 430 333 431
351 4 2 1 1 431 333 80 81
352 4 2 1 1 80 430 431 247
353 4 2 1 1 81 80 431 247
354 4 2 1 1 81 431 254 247
355 4 2 1 1 431 333 81 334
356 4 2 1 1 81 431 334 432
357 4 2 1 1 432 334 81 82
358 4 2 1 1 81 431 432 254
359 4 2 1 1 82 81 432 254
360 4 2 1 1 82 432 261 254
361 4 2 1 1 432 334 82 335
362 4 2 1 1 82 432 335 433
363 4 2 1 1 433 335 82 83
364 4 2 1 1 82 432 433 261
365 4 2 1 1 83 82 433 261
366 4 2 1 1 83 433 268 261
367 4 2 1 1 433 335 83 336
368 4 2 1 1 83 433 336 434
369 4 2 1 1 434 336 83 84
370 4 2 1 1 83 433 434 268
371 4 2 1 1 84 83 434 268
372 4 2 1 1 84 434 275 268
373 4 2 1 1 434 336 84 337
374 4 2 1 1 84 434 337 435
375 4 2 1 1 435 337 84 85
376 4 2 1 1 84 434 435 275
377 4 2 1 1 85 84 435 275
378 4 2 1 1 85 435 282 275
379 4 2 1 1 435 337 85 64
380 4 2 1 1 85 435 64 148
381 4 2 1 1 148 64 85 8
382 4 2 1 1 85 435 148 282
383 4 2 1 1 8 85 148 282
384 4 2 1 1 8 148 51 282
385 4 2 1 1 10 9 93 191
386 4 2 1 1 93 10 191 192
387 4 2 1 1 192 191 93 387
388 4 2 1 1 93 10 192 100
389 4 2 1 1 387 93 192 100
390 4 2 1 1 387 192 436 100
391 4 2 1 1 192 191 387 198
392 4 2 1 1 387 192 198 199
393 4 2 1 1 199 198 387 388
394 4 2 1 1 387 192 199 436
395 4 2 1 1 388 387 199 436
396 4 2 1 1 388 199 437 436
397 4 2 1 1 199 198 388 205
398 4 2 1 1 388 199 205 206
399 4 2 1 1 206 205 388 389
400 4 2 1 1 388 199 206 437
401 4 2 1 1 389 388 206 437
402 4 2 1 1 389 206 438 437
403 4 2 1 1 206 205 389 212
404 4 2 1 1 389 206 212 213
405 4 2 1 1 213 212 389 390
406 4 2 1 1 389 206 213 438
407 4 2 1 1 390 389 213 438
408 4 2 1 1 390 213 439 438
409 4 2 1 1 213 212 390 219
410 4 2 1 1 390 213 219 220
411 4 2 1 1 220 219 390 391
412 4 2 1 1 390 213 220 439
413 4 2 1 1 391 390 220 439
414 4 2 1 1 391 220 440 439
415 4 2 1 1 220 219 391 226
416 4 2 1 1 391 220 226 227
417 4 2 1 1 227 226 391 392
418 4 2 1 1 391 220 227 440
419 4 2 1 1 392 391 227 440
420 4 2 1 1 392 227 441 440
421 4 2 1 1 227 226 392 233
422 4 2 1 1 392 227 233 234
423 4 2 1 1 234 233 392 393
424 4 2 1 1 392 227 234 441
425 4 2 1 1 393 392 234 441
426 4 2 1 1 393 234 442 441
427 4 2 1 1 234 233 393 37
428 4 2 1 1 393 234 37 38
429 4 2 1 1 38 37 393 142
430 4 2 1 1 393 234 38 442
431 4 2 1 1 142 393 38 442
432 4 2 1 1 142 38 149 442
433 4 2 1 1 100 93 94 387
434 4 2 1 1 94 100 387 436
435 4 2 1 1 436 387 94 394
436 4 2 1 1 94 100 436 101
437 4 2 1 1 394 94 436 101
438 4 2 1 1 394 436 443 101
439 4 2 1 1 436 387 394 388
440 4 2 1 1 394 436 388 437
441 4 2 1 1 437 388 394 395
442 4 2 1 1 394 436 437 443
443 4 2 1 1 395 394 437 443
444 4 2 1 1 395 437 444 443
445 4 2 1 1 437 388 395 389
446 4 2 1 1 395 437 389 438
447 4 2 1 1 438 389 395 396
448 4 2 1 1 395 437 438 444
449 4 2 1 1 396 395 438 444
450 4 2 1 1 396 438 445 444
451 4 2 1 1 438 389 396 390
452 4 2 1 1 396 438 390 439
453 4 2 1 1 439 390 396 397
454 4 2 1 1 396 438 439 445
455 4 2 1 1 397 396 439 445
456 4 2 1 1 397 439 446 445
457 4 2 1 1 439 390 397 391
458 4 2 1 1 397 439 391 440
459 4 2 1 1 440 391 397 398
460 4 2 1 1 397 439 440 446
461 4 2 1 1 398 397 440 446
462 4 2 1 1 398 440 447 446
463 4 2 1 1 440 391 398 392
464 4 2 1 1 398 440 392 441
465 4 2 1 1 441 392 398 399
466 4 2 1 1 398 440 441 447
467 4 2 1 1 399 398 441 447
468 4 2 1 1 399 441 448 447
469 4 2 1 1 441 392 399 393
470 4 2 1 1 399 441 393 442
471 4 2 1 1 442 393 399 400
472 4 2 1 1 399 441 442 448
473 4 2 1 1 400 399 442 448
474 4 2 1 1 400 442 449 448
475 4 2 1 1 442 393 400 142
476 4 2 1 1 400 442 142 149
477 4 2 1 1 149 142 400 143
478 4 2 1 1 400 442 149 449
479 4 2 1 1 143 400 149 449
480 4 2 1 1 143 149 150 449
481 4 2 1 1 101 94 95 394
482 4 2 1 1 95 101 394 443
483 4 2 1 1 443 394 95 401
484 4 2 1 1 95 101 443 102
485 4 2 1 1 401 95 443 102
486 4 2 1 1 401 443 450 102
487 4 2 1 1 443 394 401 395
488 4 2 1 1 401 443 395 444
489 4 2 1 1 444 395 401 402
490 4 2 1 1 401 443 444 450
491 4 2 1 1 402 401 444 450
492 4 2 1 1 402 444 451 450
493 4 2 1 1 444 395 402 396
494 4 2 1 1 402 444 396 445
495 4 2 1 1 445 396 402 403
496 4 2 1 1 402 444 445 451
497 4 2 1 1 403 402 445 451
498 4 2 1 1 403 445 452 451
499 4 2 1 1 445 396 403 397
500 4 2 1 1 403 445 397 446
501 4 2 1 1 446 397 403 404
502 4 2 1 1 403 445 446 452
503 4 2 1 1 404 403 446 452
504 4 2 1 1 404 446 453 452
505 4 2 1 1 446 397 404 398
506 4 2 1 1 404 446 398 447
507 4 2 1 1 447 398 404 405
508 4 2 1 1 404 446 447 453
509 4 2 1 1 405 404 447 453
510 4 2 1 1 405 447 454 453
511 4 2 1 1 447 398 405 399
512 4 2 1 1 405 447 399 448
513 4 2 1 1 448 399 405 406
514 4 2 1 1 405 447 448 454
515 4 2 1 1 406 405 448 454
516 4 2 1 1 406 448 455 454
517 4 2 1 1 448 399 406 400
518 4 2 1 1 406 448 400 449
519 4 2 1 1 449 400 406 407
520 4 2 1 1 406 448 449 455
521 4 2 1 1 407 406 449 455
522 4 2 1 1 407 449 456 455
523 4 2 1 1 449 400 407 143
524 4 2 1 1 407 449 143 150
525 4 2 1 1 150 143 407 144
526 4 2 1 1 407 449 150 456
527 4 2 1 1 144 407 150 456
528 4 2 1 1 144 150 151 456
529 4 2 1 1 102 95 96 401
530 4 2 1 1 96 102 401 450
531 4 2 1 1 450 401 96 408
532 4 2 1 1 96 102 450 103
533 4 2 1 1 408 96 450 103
534 4 2 1 1 408 450 457 103
535 4 2 1 1 450 401 408 402
536 4 2 1 1 408 450 402 451
537 4 2 1 1 451 402 408 409
538 4 2 1 1 408 450 451 457
539 4 2 1 1 409 408 451 457
540 4 2 1 1 409 451 458 457
541 4 2 1 1 451 402 409 403
542 4 2 1 1 409 451 403 452
543 4 2 1 1 452 403 409 410
544 4 2 1 1 409 451 452 458
545 4 2 1 1 410 409 452 458
546 4 2 1 1 410 452 459 458
547 4 2 1 1 452 403 410 404
548 4 2 1 1 410 452 404 453
549 4 2 1 1 453 404 410 411
550 4 2 1 1 410 452 453 459
551 4 2 1 1 411 410 453 459
552 4 2 1 1 411 453 460 459
553 4 2 1 1 453 404 411 405
554 4 2 1 1 411 453 405 454
555 4 2 1 1 454 405 411 412
556 4 2 1 1 411 453 454 460
557 4 2 1 1 412 411 454 460
558 4 2 1 1 412 454 461 460
559 4 2 1 1 454 405 412 406
560 4 2 1 1 412 454 406 455
561 4 2 1 1 455 406 412 413
562 4 2 1 1 412 454 455 461
563 4 2 1 1 413 412 455 461
564 4 2 1 1 413 455 462 461
565 4 2 1 1 455 406 413 407
566 4 2 1 1 413 455 407 456
567 4 2 1 1 456 407 413 414
568 4 2 1 1 413 455 456 462
569 4 2 1 1 414 413 456 462
570 4 2 1 1 414 456 463 462
571 4 2 1 1 456 407 414 144
572 4 2 1 1 414 456 144 151
573 4 2 1 1 151 144 414 145
574 4 2 1 1 414 456 151 463
575 4 2 1 1 145 414 151 463
576 4 2 1 1 145 151 152 463
577 4 2 1 1 103 96 97 408
578 4 2 1 1 97 103 408 457
579 4 2 1 1 457 408 97 415
580 4 2 1 1 97 103 457 104
581 4 2 1 1 415 97 457 104
582 4 2 1 1 415 457 464 104
583 4 2 1 1 457 408 415 409
584 4 2 1 1 415 457 409 458
585 4 2 1 1 458 409 415 416
586 4 2 1 1 415 457 458 464
587 4 2 1 1 416 415 458 464
588 4 2 1 1 416 458 465 464
589 4 2 1 1 458 409 416 410
590 4 2 1 1 416 458 410 459
591 4 2 1 1 459 410 416 417
592 4 2 1 1 416 458 459 465
593 4 2 1 1 417 416 459 465
594 4 2 1 1 417 459 466 465
595 4 2 1 1 459 410 417 411
596 4 2 1 1 417 459 411 460
597 4 2 1 1 460 411 417 418
598 4 2 1 1 417 459 460 466
599 4 2 1 1 418 417 460 466
600 4 2 1 1 418 460 467 466
601 4 2 1 1 460 411 418 412
602 4 2 1 1 418 460 412 461
603 4 2 1 1 461 412 418 419
604 4 2 1 1 418 460 461 467
605 4 2 1 1 419 418 461 467
606 4 2 1 1 419 461 468 467
607 4 2 1 1 461 412 419 413
608 4 2 1 1 419 461 413 462
609 4 2 1 1 462 413 419 420
610 4 2 1 1 419 461 462 468
611 4 2 1 1 420 419 462 468
612 4 2 1 1 420 462 469 468
613 4 2 1 1 462 413 420 414
614 4 2 1 1 420 462 414 463
615 4 2 1 1 463 414 420 421
616 4 2 1 1 420 462 463 469
617 4 2 1 1 421 420 463 469
618 4 2 1 1 421 463 470 469
619 4 2 1 1 463 414 421 145
620 4 2 1 1 421 463 145 152
621 4 2 1 1 152 145 421 146
622 4 2 1 1 421 463 152 470
623 4 2 1 1 146 421 152 470
624 4 2 1 1 146 152 153 470
625 4 2 1 1 104 97 98 415
626 4 2 1 1 98 104 415 464
627 4 2 1 1 464 415 98 422
628 4 2 1 1 98 104 464 105
629 4 2 1 1 422 98 464 105
630 4 2 1 1 422 464 471 105
631 4 2 1 1 464 415 422 416
632 4 2 1 1 422 464 416 465
633 4 2 1 1 465 416 422 423
634 4 2 1 1 422 464 465 471
635 4 2 1 1 423 422 465 471
636 4 2 1 1 423 465 472 471
637 4 2 1 1 465 416 423 417
638 4 2 1 1 423 465 417 466
639 4 2 1 1 466 417 423 424
640 4 2 1 1 423 465 466 472
641 4 2 1 1 424 423 466 472
642 4 2 1 1 424 466 473 472
643 4 2 1 1 466 417 424 418
644 4 2 1 1 424 466 418 467
645 4 2 1 1 467 418 424 425
646 4 2 1 1 424 466 467 473
647 4 2 1 1 425 424 467 473
648 4 2 1 1 425 467 474 473
649 4 2 1 1 467 418 425 419
650 4 2 1 1 425 467 419 468
651 4 2 1 1 468 419 425 426
652 4 2 1 1 425 467 468 474
653 4 2 1 1 426 425 468 474
654 4 2 1 1 426 468 475 474
655 4 2 1 1 468 419 426 420
656 4 2 1 1 426 468 420 469
657 4 2 1 1 469 420 426 427
658 4 2 1 1 426 468 469 475
659 4 2 1 1 427 426 469 475
660 4 2 1 1 427 469 476 475
661 4 2 1 1 469 420 427 421
662 4 2 1 1 427 469 421 470
663 4 2 1 1 470 421 427 428
664 4 2 1 1 427 469 470 476
665 4 2 1 1 428 427 470 476
666 4 2 1 1 428 470 477 476
667 4 2 1 1 470 421 428 146
668 4 2 1 1 428 470 146 153
669 4 2 1 1 153 146 428 147
670 4 2 1 1 428 470 153 477
671 4 2 1 1 147 428 153 477
672 4 2 1 1 147 153 154 477
673 4 2 1 1 105 98 99 422
674 4 2 1 1 99 105 422 471
675 4 2 1 1 471 422 99 429
676 4 2 1 1 99 105 471 106
677 4 2 1 1 429 99 471 106
678 4 2 1 1 429 471 478 106
679 4 2 1 1 471 422 429 423
680 4 2 1 1 429 471 423 472
681 4 2 1 1 472 423 429 430
682 4 2 1 1 429 471 472 478
683 4 2 1 1 430 429 472 478
684 4 2 1 1 430 472 479 478
685 4 2 1 1 472 423 430 424
686 4 2 1 1 430 472 424 473
687 4 2 1 1 473 424 430 431
688 4 2 1 1 430 472 473 479
689 4 2 1 1 431 430 473 479
690 4 2 1 1 431 473 480 479
691 4 2 1 1 473 424 431 425
692 4 2 1 1 431 473 425 474
693 4 2 1 1 474 425 431 432
694 4 2 1 1 431 473 474 480
695 4 2 1 1 432 431 474 480
696 4 2 1 1 432 474 481 480
697 4 2 1 1 474 425 432 426
698 4 2 1 1 432 474 426 475
699 4 2 1 1 475 426 432 433
700 4 2 1 1 432 474 475 481
701 4 2 1 1 433 432 475 481
702 4 2 1 1 433 475 482 481
703 4 2 1 1 475 426 433 427
704 4 2 1 1 433 475 427 476
705 4 2 1 1 476 427 433 434
706 4 2 1 1 433 475 476 482
707 4 2 1 1 434 433 476 482
708 4 2 1 1 434 476 483 482
709 4 2 1 1 476 427 434 428
710 4 2 1 1 434 476 428 477
711 4 2 1 1 477 428 434 435
712 4 2 1 1 434 476 477 483
713 4 2 1 1 435 434 477 483
714 4 2 1 1 435 477 484 483
715 4 2 1 1 477 428 435 147
716 4 2 1 1 435 477 147 154
717 4 2 1 1 154 147 435 148
718 4 2 1 1 435 477 154 484
719 4 2 1 1 148 435 154 484
720 4 2 1 1 148 154 155 484
721 4 2 1 1 106 99 23 429
722 4 2 1 1 23 106 429 478
723 4 2 1 1 478 429 23 240
724 4 2 1 1 23 106 478 24
725 4 2 1 1 240 23 478 24
726 4 2 1 1 240 478 241 24
727 4 2 1 1 478 429 240 430
728 4 2 1 1 240 478 430 479
729 4 2 1 1 479 430 240 247
730 4 2 1 1 240 478 479 241
731 4 2 1 1 247 240 479 241
732 4 2 1 1 247 479 248 241
733 4 2 1 1 479 430 247 431
734 4 2 1 1 247 479 431 480
735 4 2 1 1 480 431 247 254
736 4 2 1 1 247 479 480 248
737 4 2 1 1 254 247 480 248
738 4 2 1 1 254 480 255 248
739 4 2 1 1 480 431 254 432
740 4 2 1 1 254 480 432 481
741 4 2 1 1 481 432 254 261
742 4 2 1 1 254 480 481 255
743 4 2 1 1 261 254 481 255
744 4 2 1 1 261 481 262 255
745 4 2 1 1 481 432 261 433
746 4 2 1 1 261 481 433 482
747 4 2 1 1 482 433 261 268
748 4 2 1 1 261 481 482 262
749 4 2 1 1 268 261 482 262
750 4 2 1 1 268 482 269 262
751 4 2 1 1 482 433 268 434
752 4 2 1 1 268 482 434 483
753 4 2 1 1 483 434 268 275
754 4 2 1 1 268 482 483 269
755 4 2 1 1 275 268 483 269
756 4 2 1 1 275 483 276 269
757 4 2 1 1 483 434 275 435
758 4 2 1 1 275 483 435 484
759 4 2 1 1 484 435 275 282
760 4 2 1 1 275 483 484 276
761 4 2 1 1 282 275 484 276
762 4 2 1 1 282 484 283 276
763 4 2 1 1 484 435 282 148
764 4 2 1 1 282 484 148 155
765 4 2 1 1 155 148 282 51
766 4 2 1 1 282 484 155 283
767 4 2 1 1 51 282 155 283
768 4 2 1 1 51 155 52 283
769 4 2 1 1 11 10 100 192
770 4 2 1 1 100 11 192 193
771 4 2 1 1 193 192 100 436
772 4 2 1 1 100 11 193 107
773 4 2 1 1 436 100 193 107
774 4 2 1 1 436 193 485 107
775 4 2 1 1 193 192 436 199
776 4 2 1 1 436 193 199 200
777 4 2 1 1 200 199 436 437
778 4 2 1 1 436 193 200 485
779 4 2 1 1 437 436 200 485
780 4 2 1 1 437 200 486 485
781 4 2 1 1 200 199 437 206
782 4 2 1 1 437 200 206 207
783 4 2 1 1 207 206 437 438
784 4 2 1 1 437 200 207 486
785 4 2 1 1 438 437 207 486
786 4 2 1 1 438 207 487 486
787 4 2 1 1 207 206 438 213
788 4 2 1 1 438 207 213 214
789 4 2 1 1 214 213 438 439
790 4 2 1 1 438 207 214 487
791 4 2 1 1 439 438 214 487
792 4 2 1 1 439 214 488 487
793 4 2 1 1 214 213 439 220
794 4 2 1 1 439 214 220 221
795 4 2 1 1 221 220 439 440
796 4 2 1 1 439 214 221 488
797 4 2 1 1 440 439 221 488
798 4 2 1 1 440 221 489 488
799 4 2 1 1 221 220 440 227
800 4 2 1 1 440 221 227 228
801 4 2 1 1 228 227 440 441
802 4 2 1 1 440 221 228 489
803 4 2 1 1 441 440 228 489
804 4 2 1 1 441 228 490 489
805 4 2 1 1 228 227 441 234
806 4 2 1 1 441 228 234 235
807 4 2 1 1 235 234 441 442
808 4 2 1 1 441 228 235 490
809 4 2 1 1 442 441 235 490
810 4 2 1 1 442 235 491 490
811 4 2 1 1 235 234 442 38
812 4 2 1 1 442 235 38 39
813 4 2 1 1 39 38 442 149
814 4 2 1 1 442 235 39 491
815 4 2 1 1 149 442 39 491
816 4 2 1 1 149 39 156 491
817 4 2 1 1 107 100 101 436
818 4 2 1 1 101 107 436 485
819 4 2 1 1 485 436 101 443
820 4 2 1 1 101 107 485 108
821 4 2 1 1 443 101 485 108
822 4 2 1 1 443 485 492 108
823 4 2 1 1 485 436 443 437
824 4 2 1 1 443 485 437 486
825 4 2 1 1 486 437 443 444
826 4 2 1 1 443 485 486 492
827 4 2 1 1 444 443 486 492
828 4 2 1 1 444 486 493 492
829 4 2 1 1 486 437 444 438
830 4 2 1 1 444 486 438 487
831 4 2 1 1 487 438 444 445
832 4 2 1 1 444 486 487 493
833 4 2 1 1 445 444 487 493
834 4 2 1 1 445 487 494 493
835 4 2 1 1 487 438 445 439
836 4 2 1 1 445 487 439 488
837 4 2 1 1 488 439 445 446
838 4 2 1 1 445 487 488 494
839 4 2 1 1 446 445 488 494
840 4 2 1 1 446 488 495 494
841 4 2 1 1 488 439 446 440
842 4 2 1 1 446 488 440 489
843 4 2 1 1 489 440 446 447
844 4 2 1 1 446 488 489 495
845 4 2 1 1 447 446 489 495
846 4 2 1 1 447 489 496 495
847 4 2 1 1 489 440 447 441
848 4 2 1 1 447 489 441 490
849 4 2 1 1 490 441 447 448
850 4 2 1 1 447 489 490 496
851 4 2 1 1 448 447 490 496
852 4 2 1 1 448 490 497 496
853 4 2 1 1 490 441 448 442
854 4 2 1 1 448 490 442 491
855 4 2 1 1 491 442 448 449
856 4 2 1 1 448 490 491 497
857 4 2 1 1 449 448 491 497
858 4 2 1 1 449 491 498 497
859 4 2 1 1 491 442 449 149
860 4 2 1 1 449 491 149 156
861 4 2 1 1 156 149 449 150
862 4 2 1 1 449 491 156 498
863 4 2 1 1 150 449 156 498
864 4 2 1 1 150 156 157 498
865 4 2 1 1 108 101 102 443
866 4 2 1 1 102 108 443 492
867 4 2 1 1 492 443 102 450
868 4 2 1 1 102 108 492 109
869 4 2 1 1 450 102 492 109
870 4 2 1 1 450 492 499 109
871 4 2 1 1 492 443 450 444
872 4 2 1 1 450 492 444 493
873 4 2 1 1 493 444 450 451
874 4 2 1 1 450 492 493 499
875 4 2 1 1 451 450 493 499
876 4 2 1 1 451 493 500 499
877 4 2 1 1 493 444 451 445
878 4 2 1 1 451 493 445 494
879 4 2 1 1 494 445 451 452
880 4 2 1 1 451 493 494 500
881 4 2 1 1 452 451 494 500
882 4 2 1 1 452 494 501 500
883 4 2 1 1 494 445 452 446
884 4 2 1 1 452 494 446 495
885 4 2 1 1 495 446 452 453
886 4 2 1 1 452 494 495 501
887 4 2 1 1 453 452 495 501
888 4 2 1 1 453 495 502 501
889 4 2 1 1 495 446 453 447
890 4 2 1 1 453 495 447 496
891 4 2 1 1 496 447 453 454
892 4 2 1 1 453 495 496 502
893 4 2 1 1 454 453 496 502
894 4 2 1 1 454 496 503 502
895 4 2 1 1 496 447 454 448
896 4 2 1 1 454 496 448 497
897 4 2 1 1 497 448 454 455
898 4 2 1 1 454 496 497 503
899 4 2 1 1 455 454 497 503
900 4 2 1 1 455 497 504 503
901 4 2 1 1 497 448 455 449
902 4 2 1 1 455 497 449 498
903 4 2 1 1 498 449 455 456
904 4 2 1 1 455 497 498 504
905 4 2 1 1 456 455 498 504
906 4 2 1 1 456 498 505 504
907 4 2 1 1 498 449 456 150
908 4 2 1 1 456 498 150 157
909 4 2 1 1 157 150 456 151
910 4 2 1 1 456 498 157 505
911 4 2 1 1 151 456 157 505
912 4 2 1 1 151 157 158 505
913 4 2 1 1 109 102 103 450
914 4 2 1 1 103 109 450 499
915 4 2 1 1 499 450 103 457
916 4 2 1 1 103 109 499 110
917 4 2 1 1 457 103 499 110
918 4 2 1 1 457 499 506 110
919 4 2 1 1 499 450 457 451
920 4 2 1 1 457 499 451 500
921 4 2 1 1 500 451 457 458
922 4 2 1 1 457 499 500 506
923 4 2 1 1 458 457 500 506
924 4 2 1 1 458 500 507 506
925 4 2 1 1 500 451 458 452
926 4 2 1 1 458 500 452 501
927 4 2 1 1 501 452 458 459
928 4 2 1 1 458 500 501 507
929 4 2 1 1 459 458 501 507
930 4 2 1 1 459 501 508 507
931 4 2 1 1 501 452 459 453
932 4 2 1 1 459 501 453 502
933 4 2 1 1 502 453 459 460
934 4 2 1 1 459 501 502 508
935 4 2 1 1 460 459 502 508
936 4 2 1 1 460 502 509 508
937 4 2 1 1 502 453 460 454
938 4 2 1 1 460 502 454 503
939 4 2 1 1 503 454 460 461
940 4 2 1 1 460 502 503 509
941 4 2 1 1 461 460 503 509
942 4 2 1 1 461 503 510 509
943 4 2 1 1 503 454 461 455
944 4 2 1 1 461 503 455 504
945 4 2 1 1 504 455 461 462
946 4 2 1 1 461 503 504 510
947 4 2 1 1 462 461 504 510
948 4 2 1 1 462 504 511 510
949 4 2 1 1 504 455 462 456
950 4 2 1 1 462 504 456 505
951 4 2 1 1 505 456 462 463
952 4 2 1 1 462 504 505 511
953 4 2 1 1 463 462 505 511
954 4 2 1 1 463 505 512 511
955 4 2 1 1 505 456 463 151
956 4 2 1 1 463 505 151 158
957 4 2 1 1 158 151 463 152
958 4 2 1 1 463 505 158 512
959 4 2 1 1 152 463 158 512
960 4 2 1 1 152 158 159 512
961 4 2 1 1 110 103 104 457
962 4 2 1 1 104 110 457 506
963 4 2 1 1 506 457 104 464
964 4 2 1 1 104 110 506 111
965 4 2 1 1 464 104 506 111
966 4 2 1 1 464 506 513 111
967 4 2 1 1 506 457 464 458
968 4 2 1 1 464 506 458 507
969 4 2 1 1 507 458 464 465
970 4 2 1 1 464 506 507 513
971 4 2 1 1 465 464 507 513
972 4 2 1 1 465 507 514 513
973 4 2 1 1 507 458 465 459
974 4 2 1 1 465 507 459 508
975 4 2 1 1 508 459 465 466
976 4 2 1 1 465 507 508 514
977 4 2 1 1 466 465 508 514
978 4 2 1 1 466 508 515 514
979 4 2 1 1 508 459 466 460
980 4 2 1 1 466 508 460 509
981 4 2 1 1 509 460 466 467
982 4 2 1 1 466 508 509 515
983 4 2 1 1 467 466 509 515
984 4 2 1 1 467 509 516 515
985 4 2 1 1 509 460 467 461
986 4 2 1 1 467 509 461 510
987 4 2 1 1 510 461 467 468
988 4 2 1 1 467 509 510 516
989 4 2 1 1 468 467 510 516
990 4 2 1 1 468 510 517 516
991 4 2 1 1 510 461 468 462
992 4 2 1 1 468 510 462 511
993 4 2 1 1 511 462 468 469
994 4 2 1 1 468 510 511 517
995 4 2 1 1 469 468 511 517
996 4 2 1 1 469 511 518 517
997 4 2 1 1 511 462 469 463
998 4 2 1 1 469 511 463 512
999 4 2 1 1 512 463 469 470
1000 4 2 1 1 469 511 512 518
1001 4 2 1 1 470 469 512 518
1002 4 2 1 1 470 512 519 518
1003 4 2 1 1 512 463 470 152
1004 4 2 1 1 470 512 152 159
1005 4 2 1 1 159 152 470 153
1006 4 2 1 1 470 512 159 519
1007 4 2 1 1 153 470 159 519
1008 4 2 1 1 153 159 160 519
1009 4 2 1 1 111 104 105 464
1010 4 2 1 1 105 111 464 513
1011 4 2 1 1 513 464 105 471
1012 4 2 1 1 105 111 513 112
1013 4 2 1 1 471 105 513 112
1014 4 2 1 1 471 513 520 112
1015 4 2 1 1 513 464 471 465
1016 4 2 1 1 471 513 465 514
1017 4 2 1 1 514 465 471 472
1018 4 2 1 1 471 513 514 520
1019 4 2 1 1 472 471 514 520
1020 4 2 1 1 472 514 521 520
1021 4 2 1 1 514 465 472 466
1022 4 2 1 1 472 514 466 515
1023 4 2 1 1 515 466 472 473
1024 4 2 1 1 472 514 515 521
1025 4 2 1 1 473 472 515 521
1026 4 2 1 1 473 515 522 521
1027 4 2 1 1 515 466 473 467
1028 4 2 1 1 473 515 467 516
1029 4 2 1 1 516 467 473 474
1030 4 2 1 1 473 515 516 522
1031 4 2 1 1 474 473 516 522
1032 4 2 1 1 474 516 523 522
1033 4 2 1 1 516 467 474 468
1034 4 2 1 1 474 516 468 517
1035 4 2 1 1 517 468 474 475
1036 4 2 1 1 474 516 517 523
1037 4 2 1 1 475 474 517 523
1038 4 2 1 1 475 517 524 523
1039 4 2 1 1 517 468 475 469
1040 4 2 1 1 475 517 469 518
1041 4 2 1 1 518 469 475 476
1042 4 2 1 1 475 517 518 524
1043 4 2 1 1 476 475 518 524
1044 4 2 1 1 476 518 525 524
1045 4 2 1 1 518 469 476 470
1046 4 2 1 1 476 518 470 519
1047 4 2 1 1 519 470 476 477
1048 4 2 1 1 476 518 519 525
1049 4 2 1 1 477 476 519 525
1050 4 2 1 1 477 519 526 525
1051 4 2 1 1 519 470 477 153
1052 4 2 1 1 477 519 153 160
1053 4 2 1 1 160 153 477 154
1054 4 2 1 1 477 519 160 526
1055 4 2 1 1 154 477 160 526
1056 4 2 1 1 154 160 161 526
1057 4 2 1 1 112 105 106 471
1058 4 2 1 1 106 112 471 520
1059 4 2 1 1 520 471 106 478
1060 4 2 1 1 106 112 520 113
1061 4 2 1 1 478 106 520 113
1062 4 2 1 1 478 520 527 113
1063 4 2 1 1 520 471 478 472
1064 4 2 1 1 478 520 472 521
1065 4 2 1 1 521 472 478 479
1066 4 2 1 1 478 520 521 527
1067 4 2 1 1 479 478 521 527
1068 4 2 1 1 479 521 528 527
1069 4 2 1 1 521 472 479 473
1070 4 2 1 1 479 521 473 522
1071 4 2 1 1 522 473 479 480
1072 4 2 1 1 479 521 522 528
1073 4 2 1 1 480 479 522 528
1074 4 2 1 1 480 522 529 528
1075 4 2 1 1 522 473 480 474
1076 4 2 1 1 480 522 474 523
1077 4 2 1 1 523 474 480 481
1078 4 2 1 1 480 522 523 529
1079 4 2 1 1 481 480 523 529
1080 4 2 1 1 481 523 530 529
1081 4 2 1 1 523 474 481 475
1082 4 2 1 1 481 523 475 524
1083 4 2 1 1 524 475 481 482
1084 4 2 1 1 481 523 524 530
1085 4 2 1 1 482 481 524 530
1086 4 2 1 1 482 524 531 530
1087 4 2 1 1 524 475 482 476
1088 4 2 1 1 482 524 476 525
1089 4 2 1 1 525 476 482 483
1090 4 2 1 1 482 524 525 531
1091 4 2 1 1 483 482 525 531
1092 4 2 1 1 483 525 532 531
1093 4 2 1 1 525 476 483 477
1094 4 2 1 1 483 525 477 526
1095 4 2 1 1 526 477 483 484
1096 4 2 1 1 483 525 526 532
1097 4 2 1 1 484 483 526 532
1098 4 2 1 1 484 526 533 532
1099 4 2 1 1 526 477 484 154
1100 4 2 1 1 484 526 154 161
1101 4 2 1 1 161 154 484 155
1102 4 2 1 1 484 526 161 533
1103 4 2 1 1 155 484 161 533
1104 4 2 1 1 155 161 162 533
1105 4 2 1 1 113 106 24 478
1106 4 2 1 1 24 113 478 527
1107 4 2 1 1 527 478 24 241
1108 4 2 1 1 24 113 527 25
1109 4 2 1 1 241 24 527 25
1110 4 2 1 1 241 527 242 25
1111 4 2 1 1 527 478 241 479
1112 4 2 1 1 241 527 479 528
1113 4 2 1 1 528 479 241 248
1114 4 2 1 1 241 527 528 242
1115 4 2 1 1 248 241 528 242
1116 4 2 1 1 248 528 249 242
1117 4 2 1 1 528 479 248 480
1118 4 2 1 1 248 528 480 529
1119 4 2 1 1 529 480 248 255
1120 4 2 1 1 248 528 529 249
1121 4 2 1 1 255 248 529 249
1122 4 2 1 1 255 529 256 249
1123 4 2 1 1 529 480 255 481
1124 4 2 1 1 255 529 481 530
1125 4 2 1 1 530 481 255 262
1126 4 2 1 1 255 529 530 256
1127 4 2 1 1 262 255 530 256
1128 4 2 1 1 262 530 263 256
1129 4 2 1 1 530 481 262 482
1130 4 2 1 1 262 530 482 531
1131 4 2 1 1 531 482 262 269
1132 4 2 1 1 262 530 531 263
1133 4 2 1 1 269 262 531 263
1134 4 2 1 1 269 531 270 263
1135 4 2 1 1 531 482 269 483
1136 4 2 1 1 269 531 483 532
1137 4 2 1 1 532 483 269 276
1138 4 2 1 1 269 531 532 270
1139 4 2 1 1 276 269 532 270
1140 4 2 1 1 276 532 277 270
1141 4 2 1 1 532 483 276 484
1142 4 2 1 1 276 532 484 533
1143 4 2 1 1 533 484 276 283
1144 4 2 1 1 276 532 533 277
1145 4 2 1 1 283 276 533 277
1146 4 2 1 1 283 533 284 277
1147 4 2 1 1 533 484 283 155
1148 4 2 1 1 283 533 155 162
1149 4 2 1 1 162 155 283 52
1150 4 2 1 1 283 533 162 284
1151 4 2 1 1 52 283 162 284
1152 4 2 1 1 52 162 53 284
1153 4 2 1 1 12 11 107 193
1154 4 2 1 1 107 12 193 194
1155 4 2 1 1 194 193 107 485
1156 4 2 1 1 107 12 194 114
1157 4 2 1 1 485 107 194 114
1158 4 2 1 1 485 194 534 114
1159 4 2 1 1 194 193 485 200
1160 4 2 1 1 485 194 200 201
1161 4 2 1 1 201 200 485 486
1162 4 2 1 1 485 194 201 534
1163 4 2 1 1 486 485 201 534
1164 4 2 1 1 486 201 535 534
1165 4 2 1 1 201 200 486 207
1166 4 2 1 1 486 201 207 208
1167 4 2 1 1 208 207 486 487
1168 4 2 1 1 486 201 208 535
1169 4 2 1 1 487 486 208 535
1170 4 2 1 1 487 208 536 535
1171 4 2 1 1 208 207 487 214
1172 4 2 1 1 487 208 214 215
1173 4 2 1 1 215 214 487 488
1174 4 2 1 1 487 208 215 536
1175 4 2 1 1 488 487 215 536
1176 4 2 1 1 488 215 537 536
1177 4 2 1 1 215 214 488 221
1178 4 2 1 1 488 215 221 222
1179 4 2 1 1 222 221 488 489
1180 4 2 1 1 488 215 222 537
1181 4 2 1 1 489 488 222 537
1182 4 2 1 1 489 222 538 537
1183 4 2 1 1 222 221 489 228
1184 4 2 1 1 489 222 228 229
1185 4 2 1 1 229 228 489 490
1186 4 2 1 1 489 222 229 538
1187 4 2 1 1 490 489 229 538
1188 4 2 1 1 490 229 539 538
1189 4 2 1 1 229 228 490 235
1190 4 2 1 1 490 229 235 236
1191 4 2 1 1 236 235 490 491
1192 4 2 1 1 490 229 236 539
1193 4 2 1 1 491 490 236 539
1194 4 2 1 1 491 236 540 539
1195 4 2 1 1 236 235 491 39
1196 4 2 1 1 491 236 39 40
1197 4 2 1 1 40 39 491 156
1198 4 2 1 1 491 236 40 540
1199 4 2 1 1 156 491 40 540
1200 4 2 1 1 156 40 163 540
1201 4 2 1 1 114 107 108 485
1202 4 2 1 1 108 114 485 534
1203 4 2 1 1 534 485 108 492
1204 4 2 1 1 108 114 534 115
1205 4 2 1 1 492 108 534 115
1206 4 2 1 1 492 534 541 115
1207 4 2 1 1 534 485 492 486
1208 4 2 1 1 492 534 486 535
1209 4 2 1 1 535 486 492 493
1210 4 2 1 1 492 534 535 541
1211 4 2 1 1 493 492 535 541
1212 4 2 1 1 493 535 542 541
1213 4 2 1 1 535 486 493 487
1214 4 2 1 1 493 535 487 536
1215 4 2 1 1 536 487 493 494
1216 4 2 1 1 493 535 536 542
1217 4 2 1 1 494 493 536 542
1218 4 2 1 1 494 536 543 542
1219 4 2 1 1 536 487 494 488
1220 4 2 1 1 494 536 488 537
1221 4 2 1 1 537 488 494 495
1222 4 2 1 1 494 536 537 543
1223 4 2 1 1 495 494 537 543
1224 4 2 1 1 495 537 544 543
1225 4 2 1 1 537 488 495 489
1226 4 2 1 1 495 537 489 538
1227 4 2 1 1 538 489 495 496
1228 4 2 1 1 495 537 538 544
1229 4 2 1 1 496 495 538 544
1230 4 2 1 1 496 538 545 544
1231 4 2 1 1 538 489 496 490
1232 4 2 1 1 496 538 490 539
1233 4 2 1 1 539 490 496 497
1234 4 2 1 1 496 538 539 545
1235 4 2 1 1 497 496 539 545
1236 4 2 1 1 497 539 546 545
1237 4 2 1 1 539 490 497 491
1238 4 2 1 1 497 539 491 540
1239 4 2 1 1 540 491 497 498
1240 4 2 1 1 497 539 540 546
1241 4 2 1 1 498 497 540 546
1242 4 2 1 1 498 540 547 546
1243 4 2 1 1 540 491 498 156
1244 4 2 1 1 498 540 156 163
1245 4 2 1 1 163 156 498 157
1246 4 2 1 1 498 540 163 547
1247 4 2 1 1 157 498 163 547
1248 4 2 1 1 157 163 164 547
1249 4 2 1 1 115 108 109 492
1250 4 2 1 1 109 115 492 541
1251 4 2 1 1 541 492 109 499
1252 4 2 1 1 109 115 541 116
1253 4 2 1 1 499 109 541 116
1254 4 2 1 1 499 541 548 116
1255 4 2 1 1 541 492 499 493
1256 4 2 1 1 499 541 493 542
1257 4 2 1 1 542 493 499 500
1258 4 2 1 1 499 541 542 548
1259 4 2 1 1 500 499 542 548
1260 4 2 1 1 500 542 549 548
1261 4 2 1 1 542 493 500 494
1262 4 2 1 1 500 542 494 543
1263 4 2 1 1 543 494 500 501
1264 4 2 1 1 500 542 543 549
1265 4 2 1 1 501 500 543 549
1266 4 2 1 1 501 543 550 549
1267 4 2 1 1 543 494 501 495
1268 4 2 1 1 501 543 495 544
1269 4 2 1 1 544 495 501 502
1270 4 2 1 1 501 543 544 550
1271 4 2 1 1 502 501 544 550
1272 4 2 1 1 502 544 551 550
1273 4 2 1 1 544 495 502 496
1274 4 2 1 1 502 544 496 545
1275 4 2 1 1 545 496 502 503
1276 4 2 1 1 502 544 545 551
1277 4 2 1 1 503 502 545 551
1278 4 2 1 1 503 545 552 551
1279 4 2 1 1 545 496 503 497
1280 4 2 1 1 503 545 497 546
1281 4 2 1 1 546 497 503 504
1282 4 2 1 1 503 545 546 552
1283 4 2 1 1 504 503 546 552
1284 4 2 1 1 504 546 553 552
1285 4 2 1 1 546 497 504 498
1286 4 2 1 1 504 546 498 547
1287 4 2 1 1 547 498 504 505
1288 4 2 1 1 504 546 547 553
1289 4 2 1 1 505 504 547 553
1290 4 2 1 1 505 547 554 553
1291 4 2 1 1 547 498 505 157
1292 4 2 1 1 505 547 157 164
1293 4 2 1 1 164 157 505 158
1294 4 2 1 1 505 547 164 554
1295 4 2 1 1 158 505 164 554
1296 4 2 1 1 158 164 165 554
1297 4 2 1 1 116 109 110 499
1298 4 2 1 1 110 116 499 548
1299 4 2 1 1 548 499 110 506
1300 4 2 1 1 110 116 548 117
1301 4 2 1 1 506 110 548 117
1302 4 2 1 1 506 548 555 117
1303 4 2 1 1 548 499 506 500
1304 4 2 1 1 506 548 500 549
1305 4 2 1 1 549 500 506 507
1306 4 2 1 1 506 548 549 555
1307 4 2 1 1 507 506 549 555
1308 4 2 1 1 507 549 556 555
1309 4 2 1 1 549 500 507 501
1310 4 2 1 1 507 549 501 550
1311 4 2 1 1 550 501 507 508
1312 4 2 1 1 507 549 550 556
1313 4 2 1 1 508 507 550 556
1314 4 2 1 1 508 550 557 556
1315 4 2 1 1 550 501 508 502
1316 4 2 1 1 508 550 502 551
1317 4 2 1 1 551 502 508 509
1318 4 2 1 1 508 550 551 557
1319 4 2 1 1 509 508 551 557
1320 4 2 1 1 509 551 558 557
1321 4 2 1 1 551 502 509 503
1322 4 2 1 1 509 551 503 552
1323 4 2 1 1 552 503 509 510
1324 4 2 1 1 509 551 552 558
1325 4 2 1 1 510 509 552 558
1326 4 2 1 1 510 552 559 558
1327 4 2 1 1 552 503 510 504
1328 4 2 1 1 510 552 504 553
1329 4 2 1 1 553 504 510 511
1330 4 2 1 1 510 552 553 559
1331 4 2 1 1 511 510 553 559
1332 4 2 1 1 511 553 560 559
1333 4 2 1 1 553 504 511 505
1334 4 2 1 1 511 553 505 554
1335 4 2 1 1 554 505 511 512
1336 4 2 1 1 511 553 554 560
1337 4 2 1 1 512 511 554 560
1338 4 2 1 1 512 554 561 560
1339 4 2 1 1 554 505 512 158
1340 4 2 1 1 512 554 158 165
1341 4 2 1 1 165 158 512 159
1342 4 2 1 1 512 554 165 561
1343 4 2 1 1 159 512 165 561
1344 4 2 1 1 159 165 166 561
1345 4 2 1 1 117 110 111 506
1346 4 2 1 1 111 117 506 555
1347 4 2 1 1 555 506 111 513
1348 4 2 1 1 111 117 555 118
1349 4 2 1 1 513 111 555 118
1350 4 2 1 1 513 555 562 118
1351 4 2 1 1 555 506 513 507
1352 4 2 1 1 513 555 507 556
1353 4 2 1 1 556 507 513 514
1354 4 2 1 1 513 555 556 562
1355 4 2 1 1 514 513 556 562
1356 4 2 1 1 514 556 563 562
1357 4 2 1 1 556 507 514 508
1358 4 2 1 1 514 556 508 557
1359 4 2 1 1 557 508 514 515
1360 4 2 1 1 514 556 557 563
1361 4 2 1 1 515 514 557 563
1362 4 2 1 1 515 557 564 563
1363 4 2 1 1 557 508 515 509
1364 4 2 1 1 515 557 509 558
1365 4 2 1 1 558 509 515 516
1366 4 2 1 1 515 557 558 564
1367 4 2 1 1 516 515 558 564
1368 4 2 1 1 516 558 565 564
1369 4 2 1 1 558 509 516 510
1370 4 2 1 1 516 558 510 559
1371 4 2 1 1 559 510 516 517
1372 4 2 1 1 516 558 559 565
1373 4 2 1 1 517 516 559 565
1374 4 2 1 1 517 559 566 565
1375 4 2 1 1 559 510 517 511
1376 4 2 1 1 517 559 511 560
1377 4 2 1 1 560 511 517 518
1378 4 2 1 1 517 559 560 566
1379 4 2 1 1 518 517 560 566
1380 4 2 1 1 518 560 567 566
1381 4 2 1 1 560 511 518 512
1382 4 2 1 1 518 560 512 561
1383 4 2 1 1 561 512 518 519
1384 4 2 1 1 518 560 561 567
1385 4 2 1 1 519 518 561 567
1386 4 2 1 1 519 561 568 567
1387 4 2 1 1 561 512 519 159
1388 4 2 1 1 519 561 159 166
1389 4 2 1 1 166 159 519 160
1390 4 2 1 1 519 561 166 568
1391 4 2 1 1 160 519 166 568
1392 4 2 1 1 160 166 167 568
1393 4 2 1 1 118 111 112 513
1394 4 2 1 1 112 118 513 562
1395 4 2 1 1 562 513 112 520
1396 4 2 1 1 112 118 562 119
1397 4 2 1 1 520 112 562 119
1398 4 2 1 1 520 562 569 119
1399 4 2 1 1 562 513 520 514
1400 4 2 1 1 520 562 514 563
1401 4 2 1 1 563 514 520 521
1402 4 2 1 1 520 562 563 569
1403 4 2 1 1 521 520 563 569
1404 4 2 1 1 521 563 570 569
1405 4 2 1 1 563 514 521 515
1406 4 2 1 1 521 563 515 564
1407 4 2 1 1 564 515 521 522
1408 4 2 1 1 521 563 564 570
1409 4 2 1 1 522 521 564 570
1410 4 2 1 1 522 564 571 570
1411 4 2 1 1 564 515 522 516
1412 4 2 1 1 522 564 516 565
1413 4 2 1 1 565 516 522 523
1414 4 2 1 1 522 564 565 571
1415 4 2 1 1 523 522 565 571
1416 4 2 1 1 523 565 572 571
1417 4 2 1 1 565 516 523 517
1418 4 2 1 1 523 565 517 566
1419 4 2 1 1 566 517 523 524
1420 4 2 1 1 523 565 566 572
1421 4 2 1 1 524 523 566 572
1422 4 2 1 1 524 566 573 572
1423 4 2 1 1 566 517 524 518
1424 4 2 1 1 524 566 518 567
1425 4 2 1 1 567 518 524 525
1426 4 2 1 1 524 566 567 573
1427 4 2 1 1 525 524 567 573
1428 4 2 1 1 525 567 574 573
1429 4 2 1 1 567 518 525 519
1430 4 2 1 1 525 567 519 568
1431 4 2 1 1 568 519 525 526
1432 4 2 1 1 525 567 568 574
1433 4 2 1 1 526 525 568 574
1434 4 2 1 1 526 568 575 574
1435 4 2 1 1 568 519 526 160
1436 4 2 1 1 526 568 160 167
1437 4 2 1 1 167 160 526 161
1438 4 2 1 1 526 568 167 575
1439 4 2 1 1 161 526 167 575
1440 4 2 1 1 161 167 168 575
1441 4 2 1 1 119 112 113 520
1442 4 2 1 1 113 119 520 569
1443 4 2 1 1 569 520 113 527
1444 4 2 1 1 113 119 569 120
1445 4 2 1 1 527 113 569 120
1446 4 2 1 1 527 569 576 120
1447 4 2 1 1 569 520 527 521
1448 4 2 1 1 527 569 521 570
1449 4 2 1 1 570 521 527 528
1450 4 2 1 1 527 569 570 576
1451 4 2 1 1 528 527 570 576
1452 4 2 1 1 528 570 577 576
1453 4 2 1 1 570 521 528 522
1454 4 2 1 1 528 570 522 571
1455 4 2 1 1 571 522 528 529
1456 4 2 1 1 528 570 571 577
1457 4 2 1 1 529 528 571 577
1458 4 2 1 1 529 571 578 577
1459 4 2 1 1 571 522 529 523
1460 4 2 1 1 529 571 523 572
1461 4 2 1 1 572 523 529 530
1462 4 2 1 1 529 571 572 578
1463 4 2 1 1 530 529 572 578
1464 4 2 1 1 530 572 579 578
1465 4 2 1 1 572 523 530 524
1466 4 2 1 1 530 572 524 573
1467 4 2 1 1 573 524 530 531
1468 4 2 1 1 530 572 573 579
1469 4 2 1 1 531 530 573 579
1470 4 2 1 1 531 573 580 579
1471 4 2 1 1 573 524 531 525
1472 4 2 1 1 531 573 525 574
1473 4 2 1 1 574 525 531 532
1474 4 2 1 1 531 573 574 580
1475 4 2 1 1 532 531 574 580
1476 4 2 1 1 532 574 581 580
1477 4 2 1 1 574 525 532 526
1478 4 2 1 1 532 574 526 575
1479 4 2 1 1 575 526 532 533
1480 4 2 1 1 532 574 575 581
1481 4 2 1 1 533 532 575 581
1482 4 2 1 1 533 575 582 581
1483 4 2 1 1 575 526 533 161
1484 4 2 1 1 533 575 161 168
1485 4 2 1 1 168 161 533 162
1486 4 2 1 1 533 575 168 582
1487 4 2 1 1 162 533 168 582
1488 4 2 1 1 162 168 169 582
1489 4 2 1 1 120 113 25 527
1490 4 2 1 1 25 120 527 576
1491 4 2 1 1 576 527 25 242
1492 4 2 1 1 25 120 576 26
1493 4 2 1 1 242 25 576 26
1494 4 2 1 1 242 576 243 26
1495 4 2 1 1 576 527 242 528
1496 4 2 1 1 242 576 528 577
1497 4 2 1 1 577 528 242 249
1498 4 2 1 1 242 576 577 243
1499 4 2 1 1 249 242 577 243
1500 4 2 1 1 249 577 250 243
1501 4 2 1 1 577 528 249 529
1502 4 2 1 1 249 577 529 578
1503 4 2 1 1 578 529 249 256
1504 4 2 1 1 249 577 578 250
1505 4 2 1 1 256 249 578 250
1506 4 2 1 1 256 578 257 250
1507 4 2 1 1 578 529 256 530
1508 4 2 1 1 256 578 530 579
1509 4 2 1 1 579 530 256 263
1510 4 2 1 1 256 578 579 257
1511 4 2 1 1 263 256 579 257
1512 4 2 1 1 263 579 264 257
1513 4 2 1 1 579 530 263 531
1514 4 2 1 1 263 579 531 580
1515 4 2 1 1 580 531 263 270
1516 4 2 1 1 263 579 580 264
1517 4 2 1 1 270 263 580 264
1518 4 2 1 1 270 580 271 264
1519 4 2 1 1 580 531 270 532
1520 4 2 1 1 270 580 532 581
1521 4 2 1 1 581 532 270 277
1522 4 2 1 1 270 580 581 271
1523 4 2 1 1 277 270 581 271
1524 4 2 1 1 277 581 278 271
1525 4 2 1 1 581 532 277 533
1526 4 2 1 1 277 581 533 582
1527 4 2 1 1 582 533 277 284
1528 4 2 1 1 277 581 582 278
1529 4 2 1 1 284 277 582 278
1530 4 2 1 1 284 582 285 278
1531 4 2 1 1 582 533 284 162
1532 4 2 1 1 284 582 162 169
1533 4 2 1 1 169 162 284 53
1534 4 2 1 1 284 582 169 285
1535 4 2 1 1 53 284 169 285
1536 4 2 1 1 53 169 54 285
1537 4 2 1 1 13 12 114 194
1538 4 2 1 1 114 13 194 195
1539 4 2 1 1 195 194 114 534
1540 4 2 1 1 114 13 195 121
1541 4 2 1 1 534 114 195 121
1542 4 2 1 1 534 195 583 121
1543 4 2 1 1 195 194 534 201
1544 4 2 1 1 534 195 201 202
1545 4 2 1 1 202 201 534 535
1546 4 2 1 1 534 195 202 583
1547 4 2 1 1 535 534 202 583
1548 4 2 1 1 535 202 584 583
1549 4 2 1 1 202 201 535 208
1550 4 2 1 1 535 202 208 209
1551 4 2 1 1 209 208 535 536
1552 4 2 1 1 535 202 209 584
1553 4 2 1 1 536 535 209 584
1554 4 2 1 1 536 209 585 584
1555 4 2 1 1 209 208 536 215
1556 4 2 1 1 536 209 215 216
1557 4 2 1 1 216 215 536 537
1558 4 2 1 1 536 209 216 585
1559 4 2 1 1 537 536 216 585
1560 4 2 1 1 537 216 586 585
1561 4 2 1 1 216 215 537 222
1562 4 2 1 1 537 216 222 223
1563 4 2 1 1 223 222 537 538
1564 4 2 1 1 537 216 223 586
1565 4 2 1 1 538 537 223 586
1566 4 2 1 1 538 223 587 586
1567 4 2 1 1 223 222 538 229
1568 4 2 1 1 538 223 229 230
1569 4 2 1 1 230 229 538 539
1570 4 2 1 1 538 223 230 587
1571 4 2 1 1 539 538 230 587
1572 4 2 1 1 539 230 588 587
1573 4 2 1 1 230 229 539 236
1574 4 2 1 1 539 230 236 237
1575 4 2 1 1 237 236 539 540
1576 4 2 1 1 539 230 237 588
1577 4 2 1 1 540 539 237 588
1578 4 2 1 1 540 237 589 588
1579 4 2 1 1 237 236 540 40
1580 4 2 1 1 540 237 40 41
1581 4 2 1 1 41 40 540 163
1582 4 2 1 1 540 237 41 589
1583 4 2 1 1 163 540 41 589
1584 4 2 1 1 163 41 170 589
1585 4 2 1 1 121 114 115 534
1586 4 2 1 1 115 121 534 583
1587 4 2 1 1 583 534 115 541
1588 4 2 1 1 115 121 583 122
1589 4 2 1 1 541 115 583 122
1590 4 2 1 1 541 583 590 122
1591 4 2 1 1 583 534 541 535
1592 4 2 1 1 541 583 535 584
1593 4 2 1 1 584 535 541 542
1594 4 2 1 1 541 583 584 590
1595 4 2 1 1 542 541 584 590
1596 4 2 1 1 542 584 591 590
1597 4 2 1 1 584 535 542 536
1598 4 2 1 1 542 584 536 585
1599 4 2 1 1 585 536 542 543
1600 4 2 1 1 542 584 585 591
1601 4 2 1 1 543 542 585 591
1602 4 2 1 1 543 585 592 591
1603 4 2 1 1 585 536 543 537
1604 4 2 1 1 543 585 537 586
1605 4 2 1 1 586 537 543 544
1606 4 2 1 1 543 585 586 592
1607 4 2 1 1 544 543 586 592
1608 4 2 1 1 544 586 593 592
1609 4 2 1 1 586 537 544 538
1610 4 2 1 1 544 586 538 587
1611 4 2 1 1 587 538 544 545
1612 4 2 1 1 544 586 587 593
1613 4 2 1 1 545 544 587 593
1614 4 2 1 1 545 587 594 593
1615 4 2 1 1 587 538 545 539
1616 4 2 1 1 545 587 539 588
1617 4 2 1 1 588 539 545 546
1618 4 2 1 1 545 587 588 594
1619 4 2 1 1 546 545 588 594
1620 4 2 1 1 546 588 595 594
1621 4 2 1 1 588 539 546 540
1622 4 2 1 1 546 588 540 589
1623 4 2 1 1 589 540 546 547
1624 4 2 1 1 546 588 589 595
1625 4 2 1 1 547 546 589 595
1626 4 2 1 1 547 589 596 595
1627 4 2 1 1 589 540 547 163
1628 4 2 1 1 547 589 163 170
1629 4 2 1 1 170 163 547 164
1630 4 2 1 1 547 589 170 596
1631 4 2 1 1 164 547 170 596
1632 4 2 1 1 164 170 171 596
1633 4 2 1 1 122 115 116 541
1634 4 2 1 1 116 122 541 590
1635 4 2 1 1 590 541 116 548
1636 4 2 1 1 116 122 590 123
1637 4 2 1 1 548 116 590 123
1638 4 2 1 1 548 590 597 123
1639 4 2 1 1 590 541 548 542
1640 4 2 1 1 548 590 542 591
1641 4 2 1 1 591 542 548 549
1642 4 2 1 1 548 590 591 597
1643 4 2 1 1 549 548 591 597
1644 4 2 1 1 549 591 598 597
1645 4 2 1 1 591 542 549 543
1646 4 2 1 1 549 591 543 592
1647 4 2 1 1 592 543 549 550
1648 4 2 1 1 549 591 592 598
1649 4 2 1 1 550 549 592 598
1650 4 2 1 1 550 592 599 598
1651 4 2 1 1 592 543 550 544
1652 4 2 1 1 550 592 544 593
1653 4 2 1 1 593 544 550 551
1654 4 2 1 1 550 592 593 599
1655 4 2 1 1 551 550 593 599
1656 4 2 1 1 551 593 600 599
1657 4 2 1 1 593 544 551 545
1658 4 2 1 1 551 593 545 594
1659 4 2 1 1 594 545 551 552
1660 4 2 1 1 551 593 594 600
1661 4 2 1 1 552 551 594 600
1662 4 2 1 1 552 594 601 600
1663 4 2 1 1 594 545 552 546
1664 4 2 1 1 552 594 546 595
1665 4 2 1 1 595 546 552 553
1666 4 2 1 1 552 594 595 601
1667 4 2 1 1 553 552 595 601
1668 4 2 1 1 553 595 602 601
1669 4 2 1 1 595 546 553 547
1670 4 2 1 1 553 595 547 596
1671 4 2 1 1 596 547 553 554
1672 4 2 1 1 553 595 596 602
1673 4 2 1 1 554 553 596 602
1674 4 2 1 1 554 596 603 602
1675 4 2 1 1 596 547 554 164
1676 4 2 1 1 554 596 164 171
1677 4 2 1 1 171 164 554 165
1678 4 2 1 1 554 596 171 603
1679 4 2 1 1 165 554 171 603
1680 4 2 1 1 165 171 172 603
1681 4 2 1 1 123 116 117 548
1682 4 2 1 1 117 123 548 597
1683 4 2 1 1 597 548 117 555
1684 4 2 1 1 117 123 597 124
1685 4 2 1 1 555 117 597 124
1686 4 2 1 1 555 597 604 124
1687 4 2 1 1 597 548 555 549
1688 4 2 1 1 555 597 549 598
1689 4 2 1 1 598 549 555 556
1690 4 2 1 1 555 597 598 604
1691 4 2 1 1 556 555 598 604
1692 4 2 1 1 556 598 605 604
1693 4 2 1 1 598 549 556 550
1694 4 2 1 1 556 598 550 599
1695 4 2 1 1 599 550 556 557
1696 4 2 1 1 556 598 599 605
1697 4 2 1 1 557 556 599 605
1698 4 2 1 1 557 599 606 605
1699 4 2 1 1 599 550 557 551
1700 4 2 1 1 557 599 551 600
1701 4 2 1 1 600 551 557 558
1702 4 2 1 1 557 599 600 606
1703 4 2 1 1 558 557 600 606
1704 4 2 1 1 558 600 607 606
1705 4 2 1 1 600 551 558 552
1706 4 2 1 1 558 600 552 601
1707 4 2 1 1 601 552 558 559
1708 4 2 1 1 558 600 601 607
1709 4 2 1 1 559 558 601 607
1710 4 2 1 1 559 601 608 607
1711 4 2 1 1 601 552 559 553
1712 4 2 1 1 559 601 553 602
1713 4 2 1 1 602 553 559 560
1714 4 2 1 1 559 601 602 608
1715 4 2 1 1 560 559 602 608
1716 4 2 1 1 560 602 609 608
1717 4 2 1 1 602 553 560 554
1718 4 2 1 1 560 602 554 603
1719 4 2 1 1 603 554 560 561
1720 4 2 1 1 560 602 603 609
1721 4 2 1 1 561 560 603 609
1722 4 2 1 1 561 603 610 609
1723 4 2 1 1 603 554 561 165
1724 4 2 1 1 561 603 165 172
1725 4 2 1 1 172 165 561 166
1726 4 2 1 1 561 603 172 610
1727 4 2 1 1 166 561 172 610
1728 4 2 1 1 166 172 173 610
1729 4 2 1 1 124 117 118 555
1730 4 2 1 1 118 124 555 604
1731 4 2 1 1 604 555 118 562
1732 4 2 1 1 118 124 604 125
1733 4 2 1 1 562 118 604 125
1734 4 2 1 1 562 604 611 125
1735 4 2 1 1 604 555 562 556
1736 4 2 1 1 562 604 556 605
1737 4 2 1 1 605 556 562 563
1738 4 2 1 1 562 604 605 611
1739 4 2 1 1 563 562 605 611
1740 4 2 1 1 563 605 612 611
1741 4 2 1 1 605 556 563 557
1742 4 2 1 1 563 605 557 606
1743 4 2 1 1 606 557 563 564
1744 4 2 1 1 563 605 606 612
1745 4 2 1 1 564 563 606 612
1746 4 2 1 1 564 606 613 612
1747 4 2 1 1 606 557 564 558
1748 4 2 1 1 564 606 558 607
1749 4 2 1 1 607 558 564 565
1750 4 2 1 1 564 606 607 613
1751 4 2 1 1 565 564 607 613
1752 4 2 1 1 565 607 614 613
1753 4 2 1 1 607 558 565 559
1754 4 2 1 1 565 607 559 608
1755 4 2 1 1 608 559 565 566
1756 4 2 1 1 565 607 608 614
1757 4 2 1 1 566 565 608 614
1758 4 2 1 1 566 608 615 614
1759 4 2 1 1 608 559 566 560
1760 4 2 1 1 566 608 560 609
1761 4 2 1 1 609 560 566 567
1762 4 2 1 1 566 608 609 615
1763 4 2 1 1 567 566 609 615
1764 4 2 1 1 567 609 616 615
1765 4 2 1 1 609 560 567 561
1766 4 2 1 1 567 609 561 610
1767 4 2 1 1 610 561 567 568
1768 4 2 1 1 567 609 610 616
1769 4 2 1 1 568 567 610 616
1770 4 2 1 1 568 610 617 616
1771 4 2 1 1 610 561 568 166
1772 4 2 1 1 568 610 166 173
1773 4 2 1 1 173 166 568 167
1774 4 2 1 1 568 610 173 617
1775 4 2 1 1 167 568 173 617
1776 4 2 1 1 167 173 174 617
1777 4 2 1 1 125 118 119 562
1778 4 2 1 1 119 125 562 611
1779 4 2 1 1 611 562 119 569
1780 4 2 1 1 119 125 611 126
1781 4 2 1 1 569 119 611 126
1782 4 2 1 1 569 611 618 126
1783 4 2 1 1 611 562 569 563
1784 4 2 1 1 569 611 563 612
1785 4 2 1 1 612 563 569 570
1786 4 2 1 1 569 611 612 618
1787 4 2 1 1 570 569 612 618
1788 4 2 1 1 570 612 619 618
1789 4 2 1 1 612 563 570 564
1790 4 2 1 1 570 612 564 613
1791 4 2 1 1 613 564 570 571
1792 4 2 1 1 570 612 613 619
1793 4 2 1 1 571 570 613 619
1794 4 2 1 1 571 613 620 619
1795 4 2 1 1 613 564 571 565
1796 4 2 1 1 571 613 565 614
1797 4 2 1 1 614 565 571 572
1798 4 2 1 1 571 613 614 620
1799 4 2 1 1 572 571 614 620
1800 4 2 1 1 572 614 621 620
1801 4 2 1 1 614 565 572 566
1802 4 2 1 1 572 614 566 615
1803 4 2 1 1 615 566 572 573
1804 4 2 1 1 572 614 615 621
1805 4 2 1 1 573 572 615 621
1806 4 2 1 1 573 615 622 621
1807 4 2 1 1 615 566 573 567
1808 4 2 1 1 573 615 567 616
1809 4 2 1 1 616 567 573 574
1810 4 2 1 1 573 615 616 622
1811 4 2 1 1 574 573 616 622
1812 4 2 1 1 574 616 623 622
1813 4 2 1 1 616 567 574 568
1814 4 2 1 1 574 616 568 617
1815 4 2 1 1 617 568 574 575
1816 4 2 1 1 574 616 617 623
1817 4 2 1 1 575 574 617 623
1818 4 2 1 1 575 617 624 623
1819 4 2 1 1 617 568 575 167
1820 4 2 1 1 575 617 167 174
1821 4 2 1 1 174 167 575 168
1822 4 2 1 1 575 617 174 624
1823 4 2 1 1 168 575 174 624
1824 4 2 1 1 168 174 175 624
1825 4 2 1 1 126 119 120 569
1826 4 2 1 1 120 126 569 618
1827 4 2 1 1 618 569 120 576
1828 4 2 1 1 120 126 618 127
1829 4 2 1 1 576 120 618 127
1830 4 2 1 1 576 618 625 127
1831 4 2 1 1 618 569 576 570
1832 4 2 1 1 576 618 570 619
1833 4 2 1 1 619 570 576 577
1834 4 2 1 1 576 618 619 625
1835 4 2 1 1 577 576 619 625
1836 4 2 1 1 577 619 626 625
1837 4 2 1 1 619 570 577 571
1838 4 2 1 1 577 619 571 620
1839 4 2 1 1 620 571 577 578
1840 4 2 1 1 577 619 620 626
1841 4 2 1 1 578 577 620 626
1842 4 2 1 1 578 620 627 626
1843 4 2 1 1 620 571 578 572
1844 4 2 1 1 578 620 572 621
1845 4 2 1 1 621 572 578 579
1846 4 2 1 1 578 620 621 627
1847 4 2 1 1 579 578 621 627
1848 4 2 1 1 579 621 628 627
1849 4 2 1 1 621 572 579 573
1850 4 2 1 1 579 621 573 622
1851 4 2 1 1 622 573 579 580
1852 4 2 1 1 579 621 622 628
1853 4 2 1 1 580 579 622 628
1854 4 2 1 1 580 622 629 628
1855 4 2 1 1 622 573 580 574
1856 4 2 1 1 580 622 574 623
1857 4 2 1 1 623 574 580 581
1858 4 2 1 1 580 622 623 629
1859 4 2 1 1 581 580 623 629
1860 4 2 1 1 581 623 630 629
1861 4 2 1 1 623 574 581 575
1862 4 2 1 1 581 623 575 624
1863 4 2 1 1 624 575 581 582
1864 4 2 1 1 581 623 624 630
1865 4 2 1 1 582 581 624 630
1866 4 2 1 1 582 624 631 630
1867 4 2 1 1 624 575 582 168
1868 4 2 1 1 582 624 168 175
1869 4 2 1 1 175 168 582 169
1870 4 2 1 1 582 624 175 631
1871 4 2 1 1 169 582 175 631
1872 4 2 1 1 169 175 176 631
1873 4 2 1 1 127 120 26 576
1874 4 2 1 1 26 127 576 625
1875 4 2 1 1 625 576 26 243
1876 4 2 1 1 26 127 625 27
1877 4 2 1 1 243 26 625 27
1878 4 2 1 1 243 625 244 27
1879 4 2 1 1 625 576 243 577
1880 4 2 1 1 243 625 577 626
1881 4 2 1 1 626 577 243 250
1882 4 2 1 1 243 625 626 244
1883 4 2 1 1 250 243 626 244
1884 4 2 1 1 250 626 251 244
1885 4 2 1 1 626 577 250 578
1886 4 2 1 1 250 626 578 627
1887 4 2 1 1 627 578 250 257
1888 4 2 1 1 250 626 627 251
1889 4 2 1 1 257 250 627 251
1890 4 2 1 1 257 627 258 251
1891 4 2 1 1 627 578 257 579
1892 4 2 1 1 257 627 579 628
1893 4 2 1 1 628 579 257 264
1894 4 2 1 1 257 627 628 258
1895 4 2 1 1 264 257 628 258
1896 4 2 1 1 264 628 265 258
1897 4 2 1 1 628 579 264 580
1898 4 2 1 1 264 628 580 629
1899 4 2 1 1 629 580 264 271
1900 4 2 1 1 264 628 629 265
1901 4 2 1 1 271 264 629 265
1902 4 2 1 1 271 629 272 265
1903 4 2 1 1 629 580 271 581
1904 4 2 1 1 271 629 581 630
1905 4 2 1 1 630 581 271 278
1906 4 2 1 1 271 629 630 272
1907 4 2 1 1 278 271 630 272
1908 4 2 1 1 278 630 279 272
1909 4 2 1 1 630 581 278 582
1910 4 2 1 1 278 630 582 631
1911 4 2 1 1 631 582 278 285
1912 4 2 1 1 278 630 631 279
1913 4 2 1 1 285 278 631 279
1914 4 2 1 1 285 631 286 279
1915 4 2 1 1 631 582 285 169
1916 4 2 1 1 285 631 169 176
1917 4 2 1 1 176 169 285 54
1918 4 2 1 1 285 631 176 286
1919 4 2 1 1 54 285 176 286
1920 4 2 1 1 54 176 55 286
1921 4 2 1 1 14 13 121 195
1922 4 2 1 1 121 14 195 196
1923 4 2 1 1 196 195 121 583
1924 4 2 1 1 121 14 196 128
1925 4 2 1 1 583 121 196 128
1926 4 2 1 1 583 196 632 128
1927 4 2 1 1 196 195 583 202
1928 4 2 1 1 583 196 202 203
1929 4 2 1 1 203 202 583 584
1930 4 2 1 1 583 196 203 632
1931 4 2 1 1 584 583 203 632
1932 4 2 1 1 584 203 633 632
1933 4 2 1 1 203 202 584 209
1934 4 2 1 1 584 203 209 210
1935 4 2 1 1 210 209 584 585
1936 4 2 1 1 584 203 210 633
1937 4 2 1 1 585 584 210 633
1938 4 2 1 1 585 210 634 633
1939 4 2 1 1 210 209 585 216
1940 4 2 1 1 585 210 216 217
1941 4 2 1 1 217 216 585 586
1942 4 2 1 1 585 210 217 634
1943 4 2 1 1 586 585 217 634
1944 4 2 1 1 586 217 635 634
1945 4 2 1 1 217 216 586 223
1946 4 2 1 1 586 217 223 224
1947 4 2 1 1 224 223 586 587
1948 4 2 1 1 586 217 224 635
1949 4 2 1 1 587 586 224 635
1950 4 2 1 1 587 224 636 635
1951 4 2 1 1 224 223 587 230
1952 4 2 1 1 587 224 230 231
1953 4 2 1 1 231 230 587 588
1954 4 2 1 1 587 224 231 636
1955 4 2 1 1 588 587 231 636
1956 4 2 1 1 588 231 637 636
1957 4 2 1 1 231 230 588 237
1958 4 2 1 1 588 231 237 238
1959 4 2 1 1 238 237 588 589
1960 4 2 1 1 588 231 238 637
1961 4 2 1 1 589 588 238 637
1962 4 2 1 1 589 238 638 637
1963 4 2 1 1 238 237 589 41
1964 4 2 1 1 589 238 41 42
1965 4 2 1 1 42 41 589 170
1966 4 2 1 1 589 238 42 638
1967 4 2 1 1 170 589 42 638
1968 4 2 1 1 170 42 177 638
1969 4 2 1 1 128 121 122 583
1970 4 2 1 1 122 128 583 632
1971 4 2 1 1 632 583 122 590
1972 4 2 1 1 122 128 632 129
1973 4 2 1 1 590 122 632 129
1974 4 2 1 1 590 632 639 129
1975 4 2 1 1 632 583 590 584
1976 4 2 1 1 590 632 584 633
1977 4 2 1 1 633 584 590 591
1978 4 2 1 1 590 632 633 639
1979 4 2 1 1 591 590 633 639
1980 4 2 1 1 591 633 640 639
1981 4 2 1 1 633 584 591 585
1982 4 2 1 1 591 633 585 634
1983 4 2 1 1 634 585 591 592
1984 4 2 1 1 591 633 634 640
1985 4 2 1 1 592 591 634 640
1986 4 2 1 1 592 634 641 640
1987 4 2 1 1 634 585 592 586
1988 4 2 1 1 592 634 586 635
1989 4 2 1 1 635 586 592 593
1990 4 2 1 1 592 634 635 641
1991 4 2 1 1 593 592 635 641
1992 4 2 1 1 593 635 642 641
1993 4 2 1 1 635 586 593 587
1994 4 2 1 1 593 635 587 636
1995 4 2 1 1 636 587 593 594
1996 4 2 1 1 593 635 636 642
1997 4 2 1 1 594 593 636 642
1998 4 2 1 1 594 636 643 642
1999 4 2 1 1 636 587 594 588
2000 4 2 1 1 594 636 588 637
2001 4 2 1 1 637 588 594 595
2002 4 2 1 1 594 636 637 643
2003 4 2 1 1 595 594 637 643
2004 4 2 1 1 595 637 644 643
2005 4 2 1 1 637 588 595 589
2006 4 2 1 1 595 637 589 638
2007 4 2 1 1 638 589 595 596
2008 4 2 1 1 595 637 638 644
2009 4 2 1 1 596 595 638 644
2010 4 2 1 1 596 638 645 644
2011 4 2 1 1 638 589 596 170
2012 4 2 1 1 596 638 170 177
2013 4 2 1 1 177 170 596 171
2014 4 2 1 1 596 638 177 645
2015 4 2 1 1 171 596 177 645
2016 4 2 1 1 171 177 178 645
2017 4 2 1 1 129 122 123 590
2018 4 2 1 1 123 129 590 639
2019 4 2 1 1 639 590 123 597
2020 4 2 1 1 123 129 639 130
2021 4 2 1 1 597 123 639 130
2022 4 2 1 1 597 639 646 130
2023 4 2 1 1 639 590 597 591
2024 4 2 1 1 597 639 591 640
2025 4 2 1 1 640 591 597 598
2026 4 2 1 1 597 639 640 646
2027 4 2 1 1 598 597 640 646
2028 4 2 1 1 598 640 647 646
2029 4 2 1 1 640 591 598 592
2030 4 2 1 1 598 640 592 641
2031 4 2 1 1 641 592 598 599
2032 4 2 1 1 598 640 641 647
2033 4 2 1 1 599 598 641 647
2034 4 2 1 1 599 641 648 647
2035 4 2 1 1 641 592 599 593
2036 4 2 1 1 599 641 593 642
2037 4 2 1 1 642 593 599 600
2038 4 2 1 1 599 641 642 648
2039 4 2 1 1 600 599 642 648
2040 4 2 1 1 600 642 649 648
2041 4 2 1 1 642 593 600 594
2042 4 2 1 1 600 642 594 643
2043 4 2 1 1 643 594 600 601
2044 4 2 1 1 600 642 643 649
2045 4 2 1 1 601 600 643 649
2046 4 2 1 1 601 643 650 649
2047 4 2 1 1 643 594 601 595
2048 4 2 1 1 601 643 595 644
2049 4 2 1 1 644 595 601 602
2050 4 2 1 1 601 643 644 650
2051 4 2 1 1 602 601 644 650
2052 4 2 1 1 602 644 651 650
2053 4 2 1 1 644 595 602 596
2054 4 2 1 1 602 644 596 645
2055 4 2 1 1 645 596 602 603
2056 4 2 1 1 602 644 645 651
2057 4 2 1 1 603 602 645 651
2058 4 2 1 1 603 645 652 651
2059 4 2 1 1 645 596 603 171
2060 4 2 1 1 603 645 171 178
2061 4 2 1 1 178 171 603 172
2062 4 2 1 1 603 645 178 652
2063 4 2 1 1 172 603 178 652
2064 4 2 1 1 172 178 179 652
2065 4 2 1 1 130 123 124 597
2066 4 2 1 1 124 130 597 646
2067 4 2 1 1 646 597 124 604
2068 4 2 1 1 124 130 646 131
2069 4 2 1 1 604 124 646 131
2070 4 2 1 1 604 646 653 131
2071 4 2 1 1 646 597 604 598
2072 4 2 1 1 604 646 598 647
2073 4 2 1 1 647 598 604 605
2074 4 2 1 1 604 646 647 653
2075 4 2 1 1 605 604 647 653
2076 4 2 1 1 605 647 654 653
2077 4 2 1 1 647 598 605 599
2078 4 2 1 1 605 647 599 648
2079 4 2 1 1 648 599 605 606
2080 4 2 1 1 605 647 648 654
2081 4 2 1 1 606 605 648 654
2082 4 2 1 1 606 648 655 654
2083 4 2 1 1 648 599 606 600
2084 4 2 1 1 606 648 600 649
2085 4 2 1 1 649 600 606 607
2086 4 2 1 1 606 648 649 655
2087 4 2 1 1 607 606 649 655
2088 4 2 1 1 607 649 656 655
2089 4 2 1 1 649 600 607 601
2090 4 2 1 1 607 649 601 650
2091 4 2 1 1 650 601 607 608
2092 4 2 1 1 607 649 650 656
2093 4 2 1 1 608 607 650 656
2094 4 2 1 1 608 650 657 656
2095 4 2 1 1 650 601 608 602
2096 4 2 1 1 608 650 602 651
2097 4 2 1 1 651 602 608 609
2098 4 2 1 1 608 650 651 657
2099 4 2 1 1 609 608 651 657
2100 4 2 1 1 609 651 658 657
2101 4 2 1 1 651 602 609 603
2102 4 2 1 1 609 651 603 652
2103 4 2 1 1 652 603 609 610
2104 4 2 1 1 609 651 652 658
2105 4 2 1 1 610 609 652 658
2106 4 2 1 1 610 652 659 658
2107 4 2 1 1 652 603 610 172
2108 4 2 1 1 610 652 172 179
2109 4 2 1 1 179 172 610 173
2110 4 2 1 1 610 652 179 659
2111 4 2 1 1 173 610 179 659
2112 4 2 1 1 173 179 180 659
2113 4 2 1 1 131 124 125 604
2114 4 2 1 1 125 131 604 653
2115 4 2 1 1 653 604 125 611
2116 4 2 1 1 125 131 653 132
2117 4 2 1 1 611 125 653 132
2118 4 2 1 1 611 653 660 132
2119 4 2 1 1 653 604 611 605
2120 4 2 1 1 611 653 605 654
2121 4 2 1 1 654 605 611 612
2122 4 2 1 1 611 653 654 660
2123 4 2 1 1 612 611 654 660
2124 4 2 1 1 612 654 661 660
2125 4 2 1 1 654 605 612 606
2126 4 2 1 1 612 654 606 655
2127 4 2 1 1 655 606 612 613
2128 4 2 1 1 612 654 655 661
2129 4 2 1 1 613 612 655 661
2130 4 2 1 1 613 655 662 661
2131 4 2 1 1 655 606 613 607
2132 4 2 1 1 613 655 607 656
2133 4 2 1 1 656 607 613 614
2134 4 2 1 1 613 655 656 662
2135 4 2 1 1 614 613 656 662
2136 4 2 1 1 614 656 663 662
2137 4 2 1 1 656 607 614 608
2138 4 2 1 1 614 656 608 657
2139 4 2 1 1 657 608 614 615
2140 4 2 1 1 614 656 657 663
2141 4 2 1 1 615 614 657 663
2142 4 2 1 1 615 657 664 663
2143 4 2 1 1 657 608 615 609
2144 4 2 1 1 615 657 609 658
2145 4 2 1 1 658 609 615 616
2146 4 2 1 1 615 657 658 664
2147 4 2 1 1 616 615 658 664
2148 4 2 1 1 616 658 665 664
2149 4 2 1 1 658 609 616 610
2150 4 2 1 1 616 658 610 659
2151 4 2 1 1 659 610 616 617
2152 4 2 1 1 616 658 659 665
2153 4 2 1 1 617 616 659 665
2154 4 2 1 1 617 659 666 665
2155 4 2 1 1 659 610 617 173
2156 4 2 1 1 617 659 173 180
2157 4 2 1 1 180 173 617 174
2158 4 2 1 1 617 659 180 666
2159 4 2 1 1 174 617 180 666
2160 4 2 1 1 174 180 181 666
2161 4 2 1 1 132 125 126 611
2162 4 2 1 1 126 132 611 660
2163 4 2 1 1 660 611 126 618
2164 4 2 1 1 126 132 660 133
2165 4 2 1 1 618 126 660 133
2166 4 2 1 1 618 660 667 133
2167 4 2 1 1 660 611 618 612
2168 4 2 1 1 618 660 612 661
2169 4 2 1 1 661 612 618 619
2170 4 2 1 1 618 660 661 667
2171 4 2 1 1 619 618 661 667
2172 4 2 1 1 619 661 668 667
2173 4 2 1 1 661 612 619 613
2174 4 2 1 1 619 661 613 662
2175 4 2 1 1 662 613 619 620
2176 4 2 1 1 619 661 662 668
2177 4 2 1 1 620 619 662 668
2178 4 2 1 1 620 662 669 668
2179 4 2 1 1 662 613 620 614
2180 4 2 1 1 620 662 614 663
2181 4 2 1 1 663 614 620 621
2182 4 2 1 1 620 662 663 669
2183 4 2 1 1 621 620 663 669
2184 4 2 1 1 621 663 670 669
2185 4 2 1 1 663 614 621 615
2186 4 2 1 1 621 663 615 664
2187 4 2 1 1 664 615 621 622
2188 4 2 1 1 621 663 664 670
2189 4 2 1 1 622 621 664 670
2190 4 2 1 1 622 664 671 670
2191 4 2 1 1 664 615 622 616
2192 4 2 1 1 622 664 616 665
2193 4 2 1 1 665 616 622 623
2194 4 2 1 1 622 664 665 671
2195 4 2 1 1 623 622 665 671
2196 4 2 1 1 623 665 672 671
2197 4 2 1 1 665 616 623 617
2198 4 2 1 1 623 665 617 666
2199 4 2 1 1 666 617 623 624
2200 4 2 1 1 623 665 666 672
2201 4 2 1 1 624 623 666 672
2202 4 2 1 1 624 666 673 672
2203 4 2 1 1 666 617 624 174
2204 4 2 1 1 624 666 174 181
2205 4 2 1 1 181 174 624 175
2206 4 2 1 1 624 666 181 673
2207 4 2 1 1 175 624 181 673
2208 4 2 1 1 175 181 182 673
2209 4 2 1 1 133 126 127 618
2210 4 2 1 1 127 133 618 667
2211 4 2 1 1 667 618 127 625
2212 4 2 1 1 127 133 667 134
2213 4 2 1 1 625 127 667 134
2214 4 2 1 1 625 667 674 134
2215 4 2 1 1 667 618 625 619
2216 4 2 1 1 625 667 619 668
2217 4 2 1 1 668 619 625 626
2218 4 2 1 1 625 667 668 674
2219 4 2 1 1 626 625 668 674
2220 4 2 1 1 626 668 675 674
2221 4 2 1 1 668 619 626 620
2222 4 2 1 1 626 668 620 669
2223 4 2 1 1 669 620 626 627
2224 4 2 1 1 626 668 669 675
2225 4 2 1 1 627 626 669 675
2226 4 2 1 1 627 669 676 675
2227 4 2 1 1 669 620 627 621
2228 4 2 1 1 627 669 621 670
2229 4 2 1 1 670 621 627 628
2230 4 2 1 1 627 669 670 676
2231 4 2 1 1 628 627 670 676
2232 4 2 1 1 628 670 677 676
2233 4 2 1 1 670 621 628 622
2234 4 2 1 1 628 670 622 671
2235 4 2 1 1 671 622 628 629
2236 4 2 1 1 628 670 671 677
2237 4 2 1 1 629 628 671 677
2238 4 2 1 1 629 671 678 677
2239 4 2 1 1 671 622 629 623
2240 4 2 1 1 629 671 623 672
2241 4 2 1 1 672 623 629 630
2242 4 2 1 1 629 671 672 678
2243 4 2 1 1 630 629 672 678
2244 4 2 1 1 630 672 679 678
2245 4 2 1 1 672 623 630 624
2246 4 2 1 1 630 672 624 673
2247 4 2 1 1 673 624 630 631
2248 4 2 1 1 630 672 673 679
2249 4 2 1 1 631 630 673 679
2250 4 2 1 1 631 673 680 679
2251 4 2 1 1 673 624 631 175
2252 4 2 1 1 631 673 175 182
2253 4 2 1 1 182 175 631 176
2254 4 2 1 1 631 673 182 680
2255 4 2 1 1 176 631 182 680
2256 4 2 1 1 176 182 183 680
2257 4 2 1 1 134 127 27 625
2258 4 2 1 1 27 134 625 674
2259 4 2 1 1 674 625 27 244
2260 4 2 1 1 27 134 674 28
2261 4 2 1 1 244 27 674 28
2262 4 2 1 1 244 674 245 28
2263 4 2 1 1 674 625 244 626
2264 4 2 1 1 244 674 626 675
2265 4 2 1 1 675 626 244 251
2266 4 2 1 1 244 674 675 245
2267 4 2 1 1 251 244 675 245
2268 4 2 1 1 251 675 252 245
2269 4 2 1 1 675 626 251 627
2270 4 2 1 1 251 675 627 676
2271 4 2 1 1 676 627 251 258
2272 4 2 1 1 251 675 676 252
2273 4 2 1 1 258 251 676 252
2274 4 2 1 1 258 676 259 252
2275 4 2 1 1 676 627 258 628
2276 4 2 1 1 258 676 628 677
2277 4 2 1 1 677 628 258 265
2278 4 2 1 1 258 676 677 259
2279 4 2 1 1 265 258 677 259
2280 4 2 1 1 265 677 266 259
2281 4 2 1 1 677 628 265 629
2282 4 2 1 1 265 677 629 678
2283 4 2 1 1 678 629 265 272
2284 4 2 1 1 265 677 678 266
2285 4 2 1 1 272 265 678 266
2286 4 2 1 1 272 678 273 266
2287 4 2 1 1 678 629 272 630
2288 4 2 1 1 272 678 630 679
2289 4 2 1 1 679 630 272 279
2290 4 2 1 1 272 678 679 273
2291 4 2 1 1 279 272 679 273
2292 4 2 1 1 279 679 280 273
2293 4 2 1 1 679 630 279 631
2294 4 2 1 1 279 679 631 680
2295 4 2 1 1 680 631 279 286
2296 4 2 1 1 279 679 680 280
2297 4 2 1 1 286 279 680 280
2298 4 2 1 1 286 680 287 280
2299 4 2 1 1 680 631 286 176
2300 4 2 1 1 286 680 176 183
2301 4 2 1 1 183 176 286 55
2302 4 2 1 1 286 680 183 287
2303 4 2 1 1 55 286 183 287
2304 4 2 1 1 55 183 56 287
2305 4 2 1 1 15 14 128 196
2306 4 2 1 1 128 15 196 197
2307 4 2 1 1 197 196 128 632
2308 4 2 1 1 128 15 197 135
2309 4 2 1 1 632 128 197 135
2310 4 2 1 1 632 197 681 135
2311 4 2 1 1 197 196 632 203
2312 4 2 1 1 632 197 203 204
2313 4 2 1 1 204 203 632 633
2314 4 2 1 1 632 197 204 681
2315 4 2 1 1 633 632 204 681
2316 4 2 1 1 633 204 682 681
2317 4 2 1 1 204 203 633 210
2318 4 2 1 1 633 204 210 211
2319 4 2 1 1 211 210 633 634
2320 4 2 1 1 633 204 211 682
2321 4 2 1 1 634 633 211 682
2322 4 2 1 1 634 211 683 682
2323 4 2 1 1 211 210 634 217
2324 4 2 1 1 634 211 217 218
2325 4 2 1 1 218 217 634 635
2326 4 2 1 1 634 211 218 683
2327 4 2 1 1 635 634 218 683
2328 4 2 1 1 635 218 684 683
2329 4 2 1 1 218 217 635 224
2330 4 2 1 1 635 218 224 225
2331 4 2 1 1 225 224 635 636
2332 4 2 1 1 635 218 225 684
2333 4 2 1 1 636 635 225 684
2334 4 2 1 1 636 225 685 684
2335 4 2 1 1 225 224 636 231
2336 4 2 1 1 636 225 231 232
2337 4 2 1 1 232 231 636 637
2338 4 2 1 1 636 225 232 685
2339 4 2 1 1 637 636 232 685
2340 4 2 1 1 637 232 686 685
2341 4 2 1 1 232 231 637 238
2342 4 2 1 1 637 232 238 239
2343 4 2 1 1 239 238 637 638
2344 4 2 1 1 637 232 239 686
2345 4 2 1 1 638 637 239 686
2346 4 2 1 1 638 239 687 686
2347 4 2 1 1 239 238 638 42
2348 4 2 1 1 638 239 42 43
2349 4 2 1 1 43 42 638 177
2350 4 2 1 1 638 239 43 687
2351 4 2 1 1 177 638 43 687
2352 4 2 1 1 177 43 184 687
2353 4 2 1 1 135 128 129 632
2354 4 2 1 1 129 135 632 681
2355 4 2 1 1 681 632 129 639
2356 4 2 1 1 129 135 681 136
2357 4 2 1 1 639 129 681 136
2358 4 2 1 1 639 681 688 136
2359 4 2 1 1 681 632 639 633
2360 4 2 1 1 639 681 633 682
2361 4 2 1 1 682 633 639 640
2362 4 2 1 1 639 681 682 688
2363 4 2 1 1 640 639 682 688
2364 4 2 1 1 640 682 689 688
2365 4 2 1 1 682 633 640 634
2366 4 2 1 1 640 682 634 683
2367 4 2 1 1 683 634 640 641
2368 4 2 1 1 640 682 683 689
2369 4 2 1 1 641 640 683 689
2370 4 2 1 1 641 683 690 689
2371 4 2 1 1 683 634 641 635
2372 4 2 1 1 641 683 635 684
2373 4 2 1 1 684 635 641 642
2374 4 2 1 1 641 683 684 690
2375 4 2 1 1 642 641 684 690
2376 4 2 1 1 642 684 691 690
2377 4 2 1 1 684 635 642 636
2378 4 2 1 1 642 684 636 685
2379 4 2 1 1 685 636 642 643
2380 4 2 1 1 642 684 685 691
2381 4 2 1 1 643 642 685 691
2382 4 2 1 1 643 685 692 691
2383 4 2 1 1 685 636 643 637
2384 4 2 1 1 643 685 637 686
2385 4 2 1 1 686 637 643 644
2386 4 2 1 1 643 685 686 692
2387 4 2 1 1 644 643 686 692
2388 4 2 1 1 644 686 693 692
2389 4 2 1 1 686 637 644 638
2390 4 2 1 1 644 686 638 687
2391 4 2 1 1 687 638 644 645
2392 4 2 1 1 644 686 687 693
2393 4 2 1 1 645 644 687 693
2394 4 2 1 1 645 687 694 693
2395 4 2 1 1 687 638 645 177
2396 4 2 1 1 645 687 177 184
2397 4 2 1 1 184 177 645 178
2398 4 2 1 1 645 687 184 694
2399 4 2 1 1 178 645 184 694
2400 4 2 1 1 178 184 185 694
2401 4 2 1 1 136 129 130 639
2402 4 2 1 1 130 136 639 688
2403 4 2 1 1 688 639 130 646
2404 4 2 1 1 130 136 688 137
2405 4 2 1 1 646 130 688 137
2406 4 2 1 1 646 688 695 137
2407 4 2 1 1 688 639 646 640
2408 4 2 1 1 646 688 640 689
2409 4 2 1 1 689 640 646 647
2410 4 2 1 1 646 688 689 695
2411 4 2 1 1 647 646 689 695
2412 4 2 1 1 647 689 696 695
2413 4 2 1 1 689 640 647 641
2414 4 2 1 1 647 689 641 690
2415 4 2 1 1 690 641 647 648
2416 4 2 1 1 647 689 690 696
2417 4 2 1 1 648 647 690 696
2418 4 2 1 1 648 690 697 696
2419 4 2 1 1 690 641 648 642
2420 4 2 1 1 648 690 642 691
2421 4 2 1 1 691 642 648 649
2422 4 2 1 1 648 690 691 697
2423 4 2 1 1 649 648 691 697
2424 4 2 1 1 649 691 698 697
2425 4 2 1 1 691 642 649 643
2426 4 2 1 1 649 691 643 692
2427 4 2 1 1 692 643 649 650
2428 4 2 1 1 649 691 692 698
2429 4 2 1 1 650 649 692 698
2430 4 2 1 1 650 692 699 698
2431 4 2 1 1 692 643 650 644
2432 4 2 1 1 650 692 644 693
2433 4 2 1 1 693 644 650 651
2434 4 2 1 1 650 692 693 699
2435 4 2 1 1 651 650 693 699
2436 4 2 1 1 651 693 700 699
2437 4 2 1 1 693 644 651 645
2438 4 2 1 1 651 693 645 694
2439 4 2 1 1 694 645 651 652
2440 4 2 1 1 651 693 694 700
2441 4 2 1 1 652 651 694 700
2442 4 2 1 1 652 694 701 700
2443 4 2 1 1 694 645 652 178
2444 4 2 1 1 652 694 178 185
2445 4 2 1 1 185 178 652 179
2446 4 2 1 1 652 694 185 701
2447 4 2 1 1 179 652 185 701
2448 4 2 1 1 179 185 186 701
2449 4 2 1 1 137 130 131 646
2450 4 2 1 1 131 137 646 695
2451 4 2 1 1 695 646 131 653
2452 4 2 1 1 131 137 695 138
2453 4 2 1 1 653 131 695 138
2454 4 2 1 1 653 695 702 138
2455 4 2 1 1 695 646 653 647
2456 4 2 1 1 653 695 647 696
2457 4 2 1 1 696 647 653 654
2458 4 2 1 1 653 695 696 702
2459 4 2 1 1 654 653 696 702
2460 4 2 1 1 654 696 703 702
2461 4 2 1 1 696 647 654 648
2462 4 2 1 1 654 696 648 697
2463 4 2 1 1 697 648 654 655
2464 4 2 1 1 654 696 697 703
2465 4 2 1 1 655 654 697 703
2466 4 2 1 1 655 697 704 703
2467 4 2 1 1 697 648 655 649
2468 4 2 1 1 655 697 649 698
2469 4 2 1 1 698 649 655 656
2470 4 2 1 1 655 697 698 704
2471 4 2 1 1 656 655 698 704
2472 4 2 1 1 656 698 705 704
2473 4 2 1 1 698 649 656 650
2474 4 2 1 1 656 698 650 699
2475 4 2 1 1 699 650 656 657
2476 4 2 1 1 656 698 699 705
2477 4 2 1 1 657 656 699 705
2478 4 2 1 1 657 699 706 705
2479 4 2 1 1 699 650 657 651
2480 4 2 1 1 657 699 651 700
2481 4 2 1 1 700 651 657 658
2482 4 2 1 1 657 699 700 706
2483 4 2 1 1 658 657 700 706
2484 4 2 1 1 658 700 707 706
2485 4 2 1 1 700 651 658 652
2486 4 2 1 1 658 700 652 701
2487 4 2 1 1 701 652 658 659
2488 4 2 1 1 658 700 701 707
2489 4 2 1 1 659 658 701 707
2490 4 2 1 1 659 701 708 707
2491 4 2 1 1 701 652 659 179
2492 4 2 1 1 659 701 179 186
2493 4 2 1 1 186 179 659 180
2494 4 2 1 1 659 701 186 708
2495 4 2 1 1 180 659 186 708
2496 4 2 1 1 180 186 187 708
2497 4 2 1 1 138 131 132 653
2498 4 2 1 1 132 138 653 702
2499 4 2 1 1 702 653 132 660
2500 4 2 1 1 132 138 702 139
2501 4 2 1 1 660 132 702 139
2502 4 2 1 1 660 702 709 139
2503 4 2 1 1 702 653 660 654
2504 4 2 1 1 660 702 654 703
2505 4 2 1 1 703 654 660 661
2506 4 2 1 1 660 702 703 709
2507 4 2 1 1 661 660 703 709
2508 4 2 1 1 661 703 710 709
2509 4 2 1 1 703 654 661 655
2510 4 2 1 1 661 703 655 704
2511 4 2 1 1 704 655 661 662
2512 4 2 1 1 661 703 704 710
2513 4 2 1 1 662 661 704 710
2514 4 2 1 1 662 704 711 710
2515 4 2 1 1 704 655 662 656
2516 4 2 1 1 662 704 656 705
2517 4 2 1 1 705 656 662 663
2518 4 2 1 1 662 704 705 711
2519 4 2 1 1 663 662 705 711
2520 4 2 1 1 663 705 712 711
2521 4 2 1 1 705 656 663 657
2522 4 2 1 1 663 705 657 706
2523 4 2 1 1 706 657 663 664
2524 4 2 1 1 663 705 706 712
2525 4 2 1 1 664 663 706 712
2526 4 2 1 1 664 706 713 712
2527 4 2 1 1 706 657 664 658
2528 4 2 1 1 664 706 658 707
2529 4 2 1 1 707 658 664 665
2530 4 2 1 1 664 706 707 713
2531 4 2 1 1 665 664 707 713
2532 4 2 1 1 665 707 714 713
2533 4 2 1 1 707 658 665 659
2534 4 2 1 1 665 707 659 708
2535 4 2 1 1 708 659 665 666
2536 4 2 1 1 665 707 708 714
2537 4 2 1 1 666 665 708 714
2538 4 2 1 1 666 708 715 714
2539 4 2 1 1 708 659 666 180
2540 4 2 1 1 666 708 180 187
2541 4 2 1 1 187 180 666 181
2542 4 2 1 1 666 708 187 715
2543 4 2 1 1 181 666 187 715
2544 4 2 1 1 181 187 188 715
2545 4 2 1 1 139 132 133 660
2546 4 2 1 1 133 139 660 709
2547 4 2 1 1 709 660 133 667
2548 4 2 1 1 133 139 709 140
2549 4 2 1 1 667 133 709 140
2550 4 2 1 1 667 709 716 140
2551 4 2 1 1 709 660 667 661
2552 4 2 1 1 667 709 661 710
2553 4 2 1 1 710 661 667 668
2554 4 2 1 1 667 709 710 716
2555 4 2 1 1 668 667 710 716
2556 4 2 1 1 668 710 717 716
2557 4 2 1 1 710 661 668 662
2558 4 2 1 1 668 710 662 711
2559 4 2 1 1 711 662 668 669
2560 4 2 1 1 668 710 711 717
2561 4 2 1 1 669 668 711 717
2562 4 2 1 1 669 711 718 717
2563 4 2 1 1 711 662 669 663
2564 4 2 1 1 669 711 663 712
2565 4 2 1 1 712 663 669 670
2566 4 2 1 1 669 711 712 718
2567 4 2 1 1 670 669 712 718
2568 4 2 1 1 670 712 719 718
2569 4 2 1 1 712 663 670 664
2570 4 2 1 1 670 712 664 713
2571 4 2 1 1 713 664 670 671
2572 4 2 1 1 670 712 713 719
2573 4 2 1 1 671 670 713 719
2574 4 2 1 1 671 713 720 719
2575 4 2 1 1 713 664 671 665
2576 4 2 1 1 671 713 665 714
2577 4 2 1 1 714 665 671 672
2578 4 2 1 1 671 713 714 720
2579 4 2 1 1 672 671 714 720
2580 4 2 1 1 672 714 721 720
2581 4 2 1 1 714 665 672 666
2582 4 2 1 1 672 714 666 715
2583 4 2 1 1 715 666 672 673
2584 4 2 1 1 672 714 715 721
2585 4 2 1 1 673 672 715 721
2586 4 2 1 1 673 715 722 721
2587 4 2 1 1 715 666 673 181
2588 4 2 1 1 673 715 181 188
2589 4 2 1 1 188 181 673 182
2590 4 2 1 1 673 715 188 722
2591 4 2 1 1 182 673 188 722
2592 4 2 1 1 182 188 189 722
2593 4 2 1 1 140 133 134 667
2594 4 2 1 1 134 140 667 716
2595 4 2 1 1 716 667 134 674
2596 4 2 1 1 134 140 716 141
2597 4 2 1 1 674 134 716 141
2598 4 2 1 1 674 716 723 141
2599 4 2 1 1 716 667 674 668
2600 4 2 1 1 674 716 668 717
2601 4 2 1 1 717 668 674 675
2602 4 2 1 1 674 716 717 723
2603 4 2 1 1 675 674 717 723
2604 4 2 1 1 675 717 724 723
2605 4 2 1 1 717 668 675 669
2606 4 2 1 1 675 717 669 718
2607 4 2 1 1 718 669 675 676
2608 4 2 1 1 675 717 718 724
2609 4 2 1 1 676 675 718 724
2610 4 2 1 1 676 718 725 724
2611 4 2 1 1 718 669 676 670
2612 4 2 1 1 676 718 670 719
2613 4 2 1 1 719 670 676 677
2614 4 2 1 1 676 718 719 725
2615 4 2 1 1 677 676 719 725
2616 4 2 1 1 677 719 726 725
2617 4 2 1 1 719 670 677 671
2618 4 2 1 1 677 719 671 720
2619 4 2 1 1 720 671 677 678
2620 4 2 1 1 677 719 720 726
2621 4 2 1 1 678 677 720 726
2622 4 2 1 1 678 720 727 726
2623 4 2 1 1 720 671 678 672
2624 4 2 1 1 678 720 672 721
2625 4 2 1 1 721 672 678 679
2626 4 2 1 1 678 720 721 727
2627 4 2 1 1 679 678 721 727
2628 4 2 1 1 679 721 728 727
2629 4 2 1 1 721 672 679 673
2630 4 2 1 1 679 721 673 722
2631 4 2 1 1 722 673 679 680
2632 4 2 1 1 679 721 722 728
2633 4 2 1 1 680 679 722 728
2634 4 2 1 1 680 722 729 728
2635 4 2 1 1 722 673 680 182
2636 4 2 1 1 680 722 182 189
2637 4 2 1 1 189 182 680 183
2638 4 2 1 1 680 722 189 729
2639 4 2 1 1 183 680 189 729
2640 4 2 1 1 183 189 190 729
2641 4 2 1 1 141 134 28 674
2642 4 2 1 1 28 141 674 723
2643 4 2 1 1 723 674 28 245
2644 4 2 1 1 28 141 723 29
2645 4 2 1 1 245 28 723 29
2646 4 2 1 1 245 723 246 29
2647 4 2 1 1 723 674 245 675
2648 4 2 1 1 245 723 675 724
2649 4 2 1 1 724 675 245 252
2650 4 2 1 1 245 723 724 246
2651 4 2 1 1 252 245 724 246
2652 4 2 1 1 252 724 253 246
2653 4 2 1 1 724 675 252 676
2654 4 2 1 1 252 724 676 725
2655 4 2 1 1 725 676 252 259
2656 4 2 1 1 252 724 725 253
2657 4 2 1 1 259 252 725 253
2658 4 2 1 1 259 725 260 253
2659 4 2 1 1 725 676 259 677
2660 4 2 1 1 259 725 677 726
2661 4 2 1 1 726 677 259 266
2662 4 2 1 1 259 725 726 260
2663 4 2 1 1 266 259 726 260
2664 4 2 1 1 266 726 267 260
2665 4 2 1 1 726 677 266 678
2666 4 2 1 1 266 726 678 727
2667 4 2 1 1 727 678 266 273
2668 4 2 1 1 266 726 727 267
2669 4 2 1 1 273 266 727 267
2670 4 2 1 1 273 727 274 267
2671 4 2 1 1 727 678 273 679
2672 4 2 1 1 273 727 679 728
2673 4 2 1 1 728 679 273 280
2674 4 2 1 1 273 727 728 274
2675 4 2 1 1 280 273 728 274
2676 4 2 1 1 280 728 281 274
2677 4 2 1 1 728 679 280 680
2678 4 2 1 1 280 728 680 729
2679 4 2 1 1 729 680 280 287
2680 4 2 1 1 280 728 729 281
2681 4 2 1 1 287 280 729 281
2682 4 2 1 1 287 729 288 281
2683 4 2 1 1 729 680 287 183
2684 4 2 1 1 287 729 183 190
2685 4 2 1 1 190 183 287 56
2686 4 2 1 1 287 729 190 288
2687 4 2 1 1 56 287 190 288
2688 4 2 1 1 56 190 57 288
2689 4 2 1 1 1 15 135 197
2690 4 2 1 1 135 1 197 72
2691 4 2 1 1 72 197 135 681
2692 4 2 1 1 135 1 72 16
2693 4 2 1 1 681 135 72 16
2694 4 2 1 1 681 72 338 16
2695 4 2 1 1 72 197 681 204
2696 4 2 1 1 681 72 204 73
2697 4 2 1 1 73 204 681 682
2698 4 2 1 1 681 72 73 338
2699 4 2 1 1 682 681 73 338
2700 4 2 1 1 682 73 339 338
2701 4 2 1 1 73 204 682 211
2702 4 2 1 1 682 73 211 74
2703 4 2 1 1 74 211 682 683
2704 4 2 1 1 682 73 74 339
2705 4 2 1 1 683 682 74 339
2706 4 2 1 1 683 74 340 339
2707 4 2 1 1 74 211 683 218
2708 4 2 1 1 683 74 218 75
2709 4 2 1 1 75 218 683 684
2710 4 2 1 1 683 74 75 340
2711 4 2 1 1 684 683 75 340
2712 4 2 1 1 684 75 341 340
2713 4 2 1 1 75 218 684 225
2714 4 2 1 1 684 75 225 76
2715 4 2 1 1 76 225 684 685
2716 4 2 1 1 684 75 76 341
2717 4 2 1 1 685 684 76 341
2718 4 2 1 1 685 76 342 341
2719 4 2 1 1 76 225 685 232
2720 4 2 1 1 685 76 232 77
2721 4 2 1 1 77 232 685 686
2722 4 2 1 1 685 76 77 342
2723 4 2 1 1 686 685 77 342
2724 4 2 1 1 686 77 343 342
2725 4 2 1 1 77 232 686 239
2726 4 2 1 1 686 77 239 78
2727 4 2 1 1 78 239 686 687
2728 4 2 1 1 686 77 78 343
2729 4 2 1 1 687 686 78 343
2730 4 2 1 1 687 78 344 343
2731 4 2 1 1 78 239 687 43
2732 4 2 1 1 687 78 43 5
2733 4 2 1 1 5 43 687 184
2734 4 2 1 1 687 78 5 344
2735 4 2 1 1 184 687 5 344
2736 4 2 1 1 184 5 44 344
2737 4 2 1 1 16 135 136 681
2738 4 2 1 1 136 16 681 338
2739 4 2 1 1 338 681 136 688
2740 4 2 1 1 136 16 338 17
2741 4 2 1 1 688 136 338 17
2742 4 2 1 1 688 338 345 17
2743 4 2 1 1 338 681 688 682
2744 4 2 1 1 688 338 682 339
2745 4 2 1 1 339 682 688 689
2746 4 2 1 1 688 338 339 345
2747 4 2 1 1 689 688 339 345
2748 4 2 1 1 689 339 346 345
2749 4 2 1 1 339 682 689 683
2750 4 2 1 1 689 339 683 340
2751 4 2 1 1 340 683 689 690
2752 4 2 1 1 689 339 340 346
2753 4 2 1 1 690 689 340 346
2754 4 2 1 1 690 340 347 346
2755 4 2 1 1 340 683 690 684
2756 4 2 1 1 690 340 684 341
2757 4 2 1 1 341 684 690 691
2758 4 2 1 1 690 340 341 347
2759 4 2 1 1 691 690 341 347
2760 4 2 1 1 691 341 348 347
2761 4 2 1 1 341 684 691 685
2762 4 2 1 1 691 341 685 342
2763 4 2 1 1 342 685 691 692
2764 4 2 1 1 691 341 342 348
2765 4 2 1 1 692 691 342 348
2766 4 2 1 1 692 342 349 348
2767 4 2 1 1 342 685 692 686
2768 4 2 1 1 692 342 686 343
2769 4 2 1 1 343 686 692 693
2770 4 2 1 1 692 342 343 349
2771 4 2 1 1 693 692 343 349
2772 4 2 1 1 693 343 350 349
2773 4 2 1 1 343 686 693 687
2774 4 2 1 1 693 343 687 344
2775 4 2 1 1 344 687 693 694
2776 4 2 1 1 693 343 344 350
2777 4 2 1 1 694 693 344 350
2778 4 2 1 1 694 344 351 350
2779 4 2 1 1 344 687 694 184
2780 4 2 1 1 694 344 184 44
2781 4 2 1 1 44 184 694 185
2782 4 2 1 1 694 344 44 351
2783 4 2 1 1 185 694 44 351
2784 4 2 1 1 185 44 45 351
2785 4 2 1 1 17 136 137 688
2786 4 2 1 1 137 17 688 345
2787 4 2 1 1 345 688 137 695
2788 4 2 1 1 137 17 345 18
2789 4 2 1 1 695 137 345 18
2790 4 2 1 1 695 345 352 18
2791 4 2 1 1 345 688 695 689
2792 4 2 1 1 695 345 689 346
2793 4 2 1 1 346 689 695 696
2794 4 2 1 1 695 345 346 352
2795 4 2 1 1 696 695 346 352
2796 4 2 1 1 696 346 353 352
2797 4 2 1 1 346 689 696 690
2798 4 2 1 1 696 346 690 347
2799 4 2 1 1 347 690 696 697
2800 4 2 1 1 696 346 347 353
2801 4 2 1 1 697 696 347 353
2802 4 2 1 1 697 347 354 353
2803 4 2 1 1 347 690 697 691
2804 4 2 1 1 697 347 691 348
2805 4 2 1 1 348 691 697 698
2806 4 2 1 1 697 347 348 354
2807 4 2 1 1 698 697 348 354
2808 4 2 1 1 698 348 355 354
2809 4 2 1 1 348 691 698 692
2810 4 2 1 1 698 348 692 349
2811 4 2 1 1 349 692 698 699
2812 4 2 1 1 698 348 349 355
2813 4 2 1 1 699 698 349 355
2814 4 2 1 1 699 349 356 355
2815 4 2 1 1 349 692 699 693
2816 4 2 1 1 699 349 693 350
2817 4 2 1 1 350 693 699 700
2818 4 2 1 1 699 349 350 356
2819 4 2 1 1 700 699 350 356
2820 4 2 1 1 700 350 357 356
2821 4 2 1 1 350 693 700 694
2822 4 2 1 1 700 350 694 351
2823 4 2 1 1 351 694 700 701
2824 4 2 1 1 700 350 351 357
2825 4 2 1 1 701 700 351 357
2826 4 2 1 1 701 351 358 357
2827 4 2 1 1 351 694 701 185
2828 4 2 1 1 701 351 185 45
2829 4 2 1 1 45 185 701 186
2830 4 2 1 1 701 351 45 358
2831 4 2 1 1 186 701 45 358
2832 4 2 1 1 186 45 46 358
2833 4 2 1 1 18 137 138 695
2834 4 2 1 1 138 18 695 352
2835 4 2 1 1 352 695 138 702
2836 4 2 1 1 138 18 352 19
2837 4 2 1 1 702 138 352 19
2838 4 2 1 1 702 352 359 19
2839 4 2 1 1 352 695 702 696
2840 4 2 1 1 702 352 696 353
2841 4 2 1 1 353 696 702 703
2842 4 2 1 1 702 352 353 359
2843 4 2 1 1 703 702 353 359
2844 4 2 1 1 703 353 360 359
2845 4 2 1 1 353 696 703 697
2846 4 2 1 1 703 353 697 354
2847 4 2 1 1 354 697 703 704
2848 4 2 1 1 703 353 354 360
2849 4 2 1 1 704 703 354 360
2850 4 2 1 1 704 354 361 360
2851 4 2 1 1 354 697 704 698
2852 4 2 1 1 704 354 698 355
2853 4 2 1 1 355 698 704 705
2854 4 2 1 1 704 354 355 361
2855 4 2 1 1 705 704 355 361
2856 4 2 1 1 705 355 362 361
2857 4 2 1 1 355 698 705 699
2858 4 2 1 1 705 355 699 356
2859 4 2 1 1 356 699 705 706
2860 4 2 1 1 705 355 356 362
2861 4 2 1 1 706 705 356 362
2862 4 2 1 1 706 356 363 362
2863 4 2 1 1 356 699 706 700
2864 4 2 1 1 706 356 700 357
2865 4 2 1 1 357 700 706 707
2866 4 2 1 1 706 356 357 363
2867 4 2 1 1 707 706 357 363
2868 4 2 1 1 707 357 364 363
2869 4 2 1 1 357 700 707 701
2870 4 2 1 1 707 357 701 358
2871 4 2 1 1 358 701 707 708
2872 4 2 1 1 707 357 358 364
2873 4 2 1 1 708 707 358 364
2874 4 2 1 1 708 358 365 364
2875 4 2 1 1 358 701 708 186
2876 4 2 1 1 708 358 186 46
2877 4 2 1 1 46 186 708 187
2878 4 2 1 1 708 358 46 365
2879 4 2 1 1 187 708 46 365
2880 4 2 1 1 187 46 47 365
2881 4 2 1 1 19 138 139 702
2882 4 2 1 1 139 19 702 359
2883 4 2 1 1 359 702 139 709
2884 4 2 1 1 139 19 359 20
2885 4 2 1 1 709 139 359 20
2886 4 2 1 1 709 359 366 20
2887 4 2 1 1 359 702 709 703
2888 4 2 1 1 709 359 703 360
2889 4 2 1 1 360 703 709 710
2890 4 2 1 1 709 359 360 366
2891 4 2 1 1 710 709 360 366
2892 4 2 1 1 710 360 367 366
2893 4 2 1 1 360 703 710 704
2894 4 2 1 1 710 360 704 361
2895 4 2 1 1 361 704 710 711
2896 4 2 1 1 710 360 361 367
2897 4 2 1 1 711 710 361 367
2898 4 2 1 1 711 361 368 367
2899 4 2 1 1 361 704 711 705
2900 4 2 1 1 711 361 705 362
2901 4 2 1 1 362 705 711 712
2902 4 2 1 1 711 361 362 368
2903 4 2 1 1 712 711 362 368
2904 4 2 1 1 712 362 369 368
2905 4 2 1 1 362 705 712 706
2906 4 2 1 1 712 362 706 363
2907 4 2 1 1 363 706 712 713
2908 4 2 1 1 712 362 363 369
2909 4 2 1 1 713 712 363 369
2910 4 2 1 1 713 363 370 369
2911 4 2 1 1 363 706 713 707
2912 4 2 1 1 713 363 707 364
2913 4 2 1 1 364 707 713 714
2914 4 2 1 1 713 363 364 370
2915 4 2 1 1 714 713 364 370
2916 4 2 1 1 714 364 371 370
2917 4 2 1 1 364 707 714 708
2918 4 2 1 1 714 364 708 365
2919 4 2 1 1 365 708 714 715
2920 4 2 1 1 714 364 365 371
2921 4 2 1 1 715 714 365 371
2922 4 2 1 1 715 365 372 371
2923 4 2 1 1 365 708 715 187
2924 4 2 1 1 715 365 187 47
2925 4 2 1 1 47 187 715 188
2926 4 2 1 1 715 365 47 372
2927 4 2 1 1 188 715 47 372
2928 4 2 1 1 188 47 48 372
2929 4 2 1 1 20 139 140 709
2930 4 2 1 1 140 20 709 366
2931 4 2 1 1 366 709 140 716
2932 4 2 1 1 140 20 366 21
2933 4 2 1 1 716 140 366 21
2934 4 2 1 1 716 366 373 21
2935 4 2 1 1 366 709 716 710
2936 4 2 1 1 716 366 710 367
2937 4 2 1 1 367 710 716 717
2938 4 2 1 1 716 366 367 373
2939 4 2 1 1 717 716 367 373
2940 4 2 1 1 717 367 374 373
2941 4 2 1 1 367 710 717 711
2942 4 2 1 1 717 367 711 368
2943 4 2 1 1 368 711 717 718
2944 4 2 1 1 717 367 368 374
2945 4 2 1 1 718 717 368 374
2946 4 2 1 1 718 368 375 374
2947 4 2 1 1 368 711 718 712
2948 4 2 1 1 718 368 712 369
2949 4 2 1 1 369 712 718 719
2950 4 2 1 1 718 368 369 375
2951 4 2 1 1 719 718 369 375
2952 4 2 1 1 719 369 376 375
2953 4 2 1 1 369 712 719 713
2954 4 2 1 1 719 369 713 370
2955 4 2 1 1 370 713 719 720
2956 4 2 1 1 719 369 370 376
2957 4 2 1 1 720 719 370 376
2958 4 2 1 1 720 370 377 376
2959 4 2 1 1 370 713 720 714
2960 4 2 1 1 720 370 714 371
2961 4 2 1 1 371 714 720 721
2962 4 2 1 1 720 370 371 377
2963 4 2 1 1 721 720 371 377
2964 4 2 1 1 721 371 378 377
2965 4 2 1 1 371 714 721 715
2966 4 2 1 1 721 371 715 372
2967 4 2 1 1 372 715 721 722
2968 4 2 1 1 721 371 372 378
2969 4 2 1 1 722 721 372 378
2970 4 2 1 1 722 372 379 378
2971 4 2 1 1 372 715 722 188
2972 4 2 1 1 722 372 188 48
2973 4 2 1 1 48 188 722 189
2974 4 2 1 1 722 372 48 379
2975 4 2 1 1 189 722 48 379
2976 4 2 1 1 189 48 49 379
2977 4 2 1 1 21 140 141 716
2978 4 2 1 1 141 21 716 373
2979 4 2 1 1 373 716 141 723
2980 4 2 1 1 141 21 373 22
2981 4 2 1 1 723 141 373 22
2982 4 2 1 1 723 373 380 22
2983 4 2 1 1 373 716 723 717
2984 4 2 1 1 723 373 717 374
2985 4 2 1 1 374 717 723 724
2986 4 2 1 1 723 373 374 380
2987 4 2 1 1 724 723 374 380
2988 4 2 1 1 724 374 381 380
2989 4 2 1 1 374 717 724 718
2990 4 2 1 1 724 374 718 375
2991 4 2 1 1 375 718 724 725
2992 4 2 1 1 724 374 375 381
2993 4 2 1 1 725 724 375 381
2994 4 2 1 1 725 375 382 381
2995 4 2 1 1 375 718 725 719
2996 4 2 1 1 725 375 719 376
2997 4 2 1 1 376 719 725 726
2998 4 2 1 1 725 375 376 382
2999 4 2 1 1 726 725 376 382
3000 4 2 1 1 726 376 383 382
3001 4 2 1 1 376 719 726 720
3002 4 2 1 1 726 376 720 377
3003 4 2 1 1 377 720 726 727
3004 4 2 1 1 726 376 377 383
3005 4 2 1 1 727 726 377 383
3006 4 2 1 1 727 377 384 383
3007 4 2 1 1 377 720 727 721
3008 4 2 1 1 727 377 721 378
3009 4 2 1 1 378 721 727 728
3010 4 2 1 1 727 377 378 384
3011 4 2 1 1 728 727 378 384
3012 4 2 1 1 728 378 385 384
3013 4 2 1 1 378 721 728 722
3014 4 2 1 1 728 378 722 379
3015 4 2 1 1 379 722 728 729
3016 4 2 1 1 728 378 379 385
3017 4 2 1 1 729 728 379 385
3018 4 2 1 1 729 379 386 385
3019 4 2 1 1 379 722 729 189
3020 4 2 1 1 729 379 189 49
3021 4 2 1 1 49 189 729 190
3022 4 2 1 1 729 379 49 386
3023 4 2 1 1 190 729 49 386
3024 4 2 1 1 190 49 50 386
3025 4 2 1 1 22 141 29 723
3026 4 2 1 1 29 22 723 380
3027 4 2 1 1 380 723 29 246
3028 4 2 1 1 29 22 380 3
3029 4 2 1 1 246 29 380 3
3030 4 2 1 1 246 380 86 3
3031 4 2 1 1 380 723 246 724
3032 4 2 1 1 246 380 724 381
3033 4 2 1 1 381 724 246 253
3034 4 2 1 1 246 380 381 86
3035 4 2 1 1 253 246 381 86
3036 4 2 1 1 253 381 87 86
3037 4 2 1 1 381 724 253 725
3038 4 2 1 1 253 381 725 382
3039 4 2 1 1 382 725 253 260
3040 4 2 1 1 253 381 382 87
3041 4 2 1 1 260 253 382 87
3042 4 2 1 1 260 382 88 87
3043 4 2 1 1 382 725 260 726
3044 4 2 1 1 260 382 726 383
3045 4 2 1 1 383 726 260 267
3046 4 2 1 1 260 382 383 88
3047 4 2 1 1 267 260 383 88
3048 4 2 1 1 267 383 89 88
3049 4 2 1 1 383 726 267 727
3050 4 2 1 1 267 383 727 384
3051 4 2 1 1 384 727 267 274
3052 4 2 1 1 267 383 384 89
3053 4 2 1 1 274 267 384 89
3054 4 2 1 1 274 384 90 89
3055 4 2 1 1 384 727 274 728
3056 4 2 1 1 274 384 728 385
3057 4 2 1 1 385 728 274 281
3058 4 2 1 1 274 384 385 90
3059 4 2 1 1 281 274 385 90
3060 4 2 1 1 281 385 91 90
3061 4 2 1 1 385 728 281 729
3062 4 2 1 1 281 385 729 386
3063 4 2 1 1 386 729 281 288
3064 4 2 1 1 281 385 386 91
3065 4 2 1 1 288 281 386 91
3066 4 2 1 1 288 386 92 91
3067 4 2 1 1 386 729 288 190
3068 4 2 1 1 288 386 190 50
3069 4 2 1 1 50 190 288 57
3070 4 2 1 1 288 386 50 92
3071 4 2 1 1 57 288 50 92
3072 4 2 1 1 57 50 7 92
$EndElements
